<svg xmlns="http://www.w3.org/2000/svg" width="48" height="48" viewBox="0 0 48 48"><g><rect class="nc-transparent-rect" x="0" y="0" width="48" height="48" rx="0" ry="0" fill="none" stroke="none"></rect><g class="nc-icon-wrapper"><path d="M41,2H7A2,2,0,0,0,5,4V45a1,1,0,0,0,1.555.832L12,42.2l5.445,3.63a1,1,0,0,0,1.11,0L24,42.2l5.445,3.63a1,1,0,0,0,1.11,0L36,42.2l5.445,3.63A1,1,0,0,0,43,45V4A2,2,0,0,0,41,2Z" fill="#e6e6e6"></path> <path d="M26,33H14a1,1,0,0,1,0-2H26a1,1,0,0,1,0,2Z" fill="#444"></path> <path d="M34,33H32a1,1,0,0,1,0-2h2a1,1,0,0,1,0,2Z" fill="#444"></path> <path d="M26,27H14a1,1,0,0,1,0-2H26a1,1,0,0,1,0,2Z" fill="#444"></path> <path d="M34,27H32a1,1,0,0,1,0-2h2a1,1,0,0,1,0,2Z" fill="#444"></path> <circle cx="24" cy="14" r="6" fill="#b3b3b3"></circle></g></g></svg>