<?xml version="1.0" encoding="iso-8859-1"?>
<!-- Generator: Adobe Illustrator 19.0.0, SVG Export Plug-In . SVG Version: 6.00 Build 0)  -->
<svg version="1.1" id="Layer_1" xmlns="http://www.w3.org/2000/svg" xmlns:xlink="http://www.w3.org/1999/xlink" x="0px" y="0px"
	 viewBox="0 0 511.984 511.984" style="enable-background:new 0 0 511.984 511.984;" xml:space="preserve">
<path style="fill:#ED5564;" d="M255.98,234.664c-5.891,0-10.656-4.766-10.656-10.672V74.669c0-5.891,4.766-10.671,10.656-10.671
	c5.89,0,10.671,4.781,10.671,10.671v149.323C266.651,229.899,261.87,234.664,255.98,234.664z"/>
<path style="fill:#E6E9ED;" d="M319.977,309.334c0,0-33.515,53.328-63.998,53.328c-30.468,0-63.998-53.328-63.998-53.328v-85.342
	h127.996V309.334z"/>
<path style="fill:#434A54;" d="M287.978,85.341H223.98c-5.203,0-9.656-3.766-10.515-8.922l-10.672-63.998
	c-0.516-3.094,0.359-6.25,2.391-8.64C207.2,1.39,210.184,0,213.325,0h85.326c3.14,0,6.108,1.391,8.14,3.781
	c2.031,2.39,2.891,5.546,2.375,8.64l-10.655,63.998C297.65,81.575,293.197,85.341,287.978,85.341z M233.027,63.997h45.921
	l7.108-42.655h-60.154L233.027,63.997z"/>
<path style="fill:#CCD1D9;" d="M255.98,341.334c-5.891,0-10.656-4.781-10.656-10.672v-63.998c0-5.891,4.766-10.672,10.656-10.672
	c5.89,0,10.671,4.781,10.671,10.672v63.998C266.651,336.553,261.87,341.334,255.98,341.334z"/>
<path style="fill:#FFCE54;" d="M478.066,495.221c-3.141-4.984-29.124-45.438-67.639-86.514
	c-23.827-25.422-47.498-45.732-70.356-60.357c-29.406-18.812-57.687-28.359-84.091-28.359c-26.39,0-54.687,9.547-84.076,28.359
	c-22.859,14.625-46.53,34.936-70.374,60.357c-40.233,42.92-66.811,85.186-67.92,86.967c-2.047,3.281-2.156,7.438-0.281,10.828
	c1.875,3.389,5.453,5.482,9.328,5.482h426.659l0,0c5.891,0,10.672-4.766,10.672-10.654
	C479.988,499.049,479.285,496.955,478.066,495.221z"/>
<path style="fill:#F6BB42;" d="M79.5,510.64c-0.312,0.438-0.562,0.891-0.812,1.344h26.296
	c43.265-57.873,81.748-92.168,107.013-111.027c29.015-21.654,47.28-28.139,47.452-28.201c5.562-1.922,8.531-7.953,6.641-13.531
	c-1.906-5.578-7.969-8.547-13.531-6.656C249.355,353.646,173.092,380.709,79.5,510.64z"/>
<g>
</g>
<g>
</g>
<g>
</g>
<g>
</g>
<g>
</g>
<g>
</g>
<g>
</g>
<g>
</g>
<g>
</g>
<g>
</g>
<g>
</g>
<g>
</g>
<g>
</g>
<g>
</g>
<g>
</g>
</svg>
