<svg xmlns="http://www.w3.org/2000/svg" xmlns:xlink="http://www.w3.org/1999/xlink" x="0px" y="0px" viewBox="0 0 48 48"><title>pin star</title><g class="nc-icon-wrapper"><path d="M21,46a1,1,0,0,1-.707-.293C19.627,45.042,4,29.285,4,18A16.836,16.836,0,0,1,21,1,16.836,16.836,0,0,1,38,18c0,11.285-15.627,27.042-16.293,27.707A1,1,0,0,1,21,46Z" fill="#5a7a84"/> <circle cx="21" cy="18" r="6" fill="#fff"/> <path d="M35,26A10,10,0,1,0,45,36,10.011,10.011,0,0,0,35,26Z" fill="#efd358"/> <path d="M38.3,41.724a.668.668,0,0,1-.31-.077L35,40.078l-2.986,1.569a.667.667,0,0,1-.967-.7l.57-3.324L29.2,35.265a.667.667,0,0,1,.37-1.137l3.339-.485L34.4,30.618a.7.7,0,0,1,1.2,0l1.492,3.025,3.339.485a.667.667,0,0,1,.37,1.137L38.383,37.62l.57,3.324a.668.668,0,0,1-.657.78Z" fill="#fff"/></g></svg>