<?xml version="1.0" encoding="iso-8859-1"?>
<!-- Generator: Adobe Illustrator 19.0.0, SVG Export Plug-In . SVG Version: 6.00 Build 0)  -->
<svg version="1.1" id="Capa_1" xmlns="http://www.w3.org/2000/svg" xmlns:xlink="http://www.w3.org/1999/xlink" x="0px" y="0px"
	 viewBox="0 0 512 512" style="enable-background:new 0 0 512 512;" xml:space="preserve">
<path style="fill:#FFC107;" d="M256,0C150.112,0,64,86.112,64,192c0,133.088,173.312,307.936,180.672,315.328
	C247.808,510.432,251.904,512,256,512c4.096,0,8.192-1.568,11.328-4.672C274.688,499.936,448,325.088,448,192
	C448,86.112,361.888,0,256,0z"/>
<path style="fill:#FAFAFA;" d="M367.2,148.256c-1.92-5.696-6.848-9.824-12.768-10.72l-57.888-8.864l-26.048-55.456
	c-5.28-11.264-23.68-11.264-28.96,0l-26.08,55.456l-57.888,8.864c-5.92,0.896-10.848,5.056-12.736,10.72s-0.48,11.968,3.712,16.256
	l42.368,43.392l-10.048,61.504c-0.96,6.048,1.6,12.128,6.592,15.68c5.024,3.52,11.648,3.904,16.96,0.928L256,257.472l51.584,28.512
	c2.432,1.344,5.088,2.016,7.744,2.016c3.264,0,6.464-0.992,9.216-2.912c4.992-3.52,7.552-9.6,6.56-15.648l-10.016-61.504
	l42.336-43.392C367.616,160.224,369.056,153.952,367.2,148.256z"/>
<g>
</g>
<g>
</g>
<g>
</g>
<g>
</g>
<g>
</g>
<g>
</g>
<g>
</g>
<g>
</g>
<g>
</g>
<g>
</g>
<g>
</g>
<g>
</g>
<g>
</g>
<g>
</g>
<g>
</g>
</svg>
