<svg xmlns="http://www.w3.org/2000/svg" width="48" height="48" viewBox="0 0 48 48"><g><rect class="nc-transparent-rect" x="0" y="0" width="48" height="48" rx="0" ry="0" fill="none" stroke="none"></rect><g class="nc-icon-wrapper"><path fill="#8680D8" d="M20,1H2C1.44775,1,1,1.44727,1,2v18c0,0.55273,0.44775,1,1,1h18c0.55225,0,1-0.44727,1-1V2 C21,1.44727,20.55225,1,20,1z"></path> <path fill="#8680D8" d="M20,27H2c-0.55225,0-1,0.44727-1,1v18c0,0.55273,0.44775,1,1,1h18c0.55225,0,1-0.44727,1-1V28 C21,27.44727,20.55225,27,20,27z"></path> <path fill="#BBBBEA" d="M46,8H27c-0.55228,0-1-0.44772-1-1V5c0-0.55228,0.44772-1,1-1h19c0.55228,0,1,0.44772,1,1v2 C47,7.55228,46.55228,8,46,8z"></path> <path fill="#BBBBEA" d="M46,18H27c-0.55228,0-1-0.44772-1-1v-2c0-0.55229,0.44772-1,1-1h19c0.55228,0,1,0.44771,1,1v2 C47,17.55228,46.55228,18,46,18z"></path> <path fill="#BBBBEA" d="M46,34H27c-0.55228,0-1-0.44772-1-1v-2c0-0.55228,0.44772-1,1-1h19c0.55228,0,1,0.44772,1,1v2 C47,33.55228,46.55228,34,46,34z"></path> <path fill="#BBBBEA" d="M46,44H27c-0.55228,0-1-0.44772-1-1v-2c0-0.55228,0.44772-1,1-1h19c0.55228,0,1,0.44772,1,1v2 C47,43.55228,46.55228,44,46,44z"></path></g></g></svg>