<svg xmlns="http://www.w3.org/2000/svg" width="48" height="48" viewBox="0 0 48 48"><g><rect class="nc-transparent-rect" x="0" y="0" width="48" height="48" rx="0" ry="0" fill="none" stroke="none"></rect><g class="nc-icon-wrapper"><polygon points="44 27 4 27 1 23 5 19 43 19 47 23 44 27" fill="#c9aa28"></polygon> <path d="M41,47H7a2,2,0,0,1-2-2V3A2,2,0,0,1,7,1H31L43,13V45A2,2,0,0,1,41,47Z" fill="#e6e6e6"></path> <path d="M31,1V11a2,2,0,0,0,2,2H43Z" fill="#b3b3b3"></path> <path d="M1,23H47a0,0,0,0,1,0,0V39a2,2,0,0,1-2,2H3a2,2,0,0,1-2-2V23A0,0,0,0,1,1,23Z" fill="#efd358"></path> <path d="M10.586,38.465a5.218,5.218,0,0,1-1.1-.112V36.7c.116.022.237.046.366.073a2.052,2.052,0,0,0,.42.04.858.858,0,0,0,.751-.316,1.942,1.942,0,0,0,.225-1.086V28.147h2.133v7.085a3.636,3.636,0,0,1-.7,2.414A2.6,2.6,0,0,1,10.586,38.465Z" fill="#fff"></path> <path d="M20.211,33.615a2.307,2.307,0,0,1-.371,1.3,2.42,2.42,0,0,1-1.069.881,3.947,3.947,0,0,1-1.638.314A6.662,6.662,0,0,1,15.817,36a4.85,4.85,0,0,1-1.106-.384v-1.89a6.378,6.378,0,0,0,1.262.486,4.719,4.719,0,0,0,1.2.174,1.177,1.177,0,0,0,.693-.163.505.505,0,0,0,.221-.422A.465.465,0,0,0,18,33.516a1.065,1.065,0,0,0-.285-.245c-.13-.082-.479-.25-1.044-.5a4.991,4.991,0,0,1-1.152-.677,2.078,2.078,0,0,1-.57-.752,2.486,2.486,0,0,1-.185-1,2.009,2.009,0,0,1,.79-1.692,3.468,3.468,0,0,1,2.17-.607,6.091,6.091,0,0,1,2.486.564l-.65,1.637a4.716,4.716,0,0,0-1.9-.5.985.985,0,0,0-.6.145.439.439,0,0,0-.189.359.516.516,0,0,0,.239.414,9.229,9.229,0,0,0,1.3.666,3.583,3.583,0,0,1,1.41.981A2.13,2.13,0,0,1,20.211,33.615Z" fill="#fff"></path> <path d="M28.773,32.062a4.234,4.234,0,0,1-.972,3.014,3.729,3.729,0,0,1-2.848,1.031A3.722,3.722,0,0,1,22.12,35.07a4.215,4.215,0,0,1-.985-3.017,4.187,4.187,0,0,1,.98-2.995,3.745,3.745,0,0,1,2.85-1.035,3.718,3.718,0,0,1,2.842,1.027A4.239,4.239,0,0,1,28.773,32.062Zm-5.4,0q0,2.279,1.584,2.278a1.361,1.361,0,0,0,1.2-.553,3.026,3.026,0,0,0,.391-1.725,3.069,3.069,0,0,0-.394-1.737,1.35,1.35,0,0,0-1.18-.561Q23.368,29.764,23.369,32.062Z" fill="#fff"></path> <path d="M37.666,36H34.885l-2.869-5.532h-.047c.066.87.1,1.534.1,1.993V36H30.189V28.147h2.772L35.818,33.6h.034c-.051-.792-.077-1.426-.077-1.907v-3.55h1.891Z" fill="#fff"></path></g></g></svg>