<svg height="511.96568pt" viewBox="0 0 511.96568 511.96568" width="511.96568pt" xmlns="http://www.w3.org/2000/svg"><path d="m93.8125 334.566406c-16.242188-.261718-31.984375-5.667968-44.960938-15.441406-16.507812-12.289062-27.292968-30.777344-29.863281-51.199219-3.308593-27.753906 7.40625-52.789062 17.769531-77.003906 3.761719-8.828125 7.320313-17.105469 10.179688-25.476563 11.820312-31.648437 16.933594-65.410156 15.007812-99.140624-.253906-3.144532 1.191407-6.183594 3.789063-7.976563 2.59375-1.789063 5.949219-2.058594 8.800781-.707031 2.847656 1.355468 4.757813 4.125 5.011719 7.269531 2.140625 36.175781-3.273437 72.398437-15.898437 106.363281-3.089844 8.980469-6.9375 17.972656-10.664063 26.679688-9.878906 23.101562-19.210937 44.914062-16.453125 67.972656 2.003906 15.617188 10.292969 29.742188 22.949219 39.113281 18.40625 13.789063 47.226562 17.65625 61.671875-.203125 1.984375-2.453125 5.125-3.660156 8.242187-3.167968 3.117188.492187 5.734375 2.613281 6.863281 5.558593 1.128907 2.949219.601563 6.273438-1.390624 8.722657-10.066407 12.226562-25.222657 19.109374-41.054688 18.636718zm0 0" fill="#5e5f62"/><g fill="#f3d55b"><path d="m35.277344 70.621094h-17.65625c-4.875 0-8.828125-3.953125-8.828125-8.828125s3.953125-8.828125 8.828125-8.828125h17.65625c4.875 0 8.828125 3.953125 8.828125 8.828125s-3.953125 8.828125-8.828125 8.828125zm0 0"/><path d="m44.105469 44.136719c-1.367188.015625-2.71875-.285157-3.949219-.882813l-17.652344-8.828125c-4.363281-2.175781-6.136718-7.480469-3.957031-11.84375s7.484375-6.136719 11.847656-3.957031l17.65625 8.828125c3.617188 1.851563 5.5 5.933594 4.566407 9.890625-.9375 3.953125-4.449219 6.757812-8.511719 6.792969zm0 0"/><path d="m123.550781 70.621094h-17.652343c-4.878907 0-8.828126-3.953125-8.828126-8.828125s3.949219-8.828125 8.828126-8.828125h17.652343c4.875 0 8.828125 3.953125 8.828125 8.828125s-3.953125 8.828125-8.828125 8.828125zm0 0"/><path d="m97.070312 44.136719c-4.101562.007812-7.664062-2.804688-8.609374-6.796875-.941407-3.988282.984374-8.101563 4.652343-9.929688l17.65625-8.828125c2.824219-1.410156 6.183594-1.207031 8.816407.53125 2.632812 1.742188 4.136718 4.753907 3.945312 7.902344s-2.046875 5.957031-4.871094 7.367187l-17.652344 8.828126c-1.222656.609374-2.574218.925781-3.9375.925781zm0 0"/><path d="m70.585938 35.308594c-4.875 0-8.828126-3.949219-8.828126-8.824219v-17.65625c0-4.875 3.953126-8.828125 8.828126-8.828125s8.828124 3.953125 8.828124 8.828125v17.65625c0 4.875-3.953124 8.824219-8.828124 8.824219zm0 0"/></g><path d="m141.472656 245.320312-12.535156 12.535157-18.714844 18.800781c6.707032 20.214844 25.15625 47.582031 51.375 73.710938 26.21875 26.128906 53.496094 44.667968 73.710938 51.375l18.804687-18.714844 12.535157-12.535156 156.335937-156.421876h.085937l31.25-31.339843-125.085937-125.085938-31.335937 31.25v.085938zm0 0" fill="#65ddb9"/><path d="m178.8125 358.136719-148.65625 148.65625c-6.898438 6.898437-18.082031 6.898437-24.980469 0-6.902343-6.898438-6.902343-18.085938 0-24.984375l148.65625-148.65625zm0 0" fill="#cb8252"/><path d="m422.984375 214.070312-31.25 31.25c-20.214844-6.710937-47.582031-25.160156-73.710937-51.378906-26.128907-26.21875-44.667969-53.496094-51.375-73.710937l31.25-31.25c11.722656 27.925781 29.234374 53.050781 51.375 73.710937 20.664062 22.144532 45.785156 39.652344 73.710937 51.378906zm0 0" fill="#f0c419"/><path d="m360.484375 276.65625-31.25 31.25c-20.214844-6.710938-47.667969-25.246094-73.796875-51.375-26.132812-26.132812-44.667969-53.585938-51.378906-73.800781l31.25-31.25c6.710937 20.214843 25.246094 47.582031 51.378906 73.800781 26.128906 26.214844 53.582031 44.667969 73.796875 51.375zm0 0" fill="#f0c419"/><path d="m297.898438 339.15625-31.25 31.335938c-20.214844-6.707032-47.671876-25.246094-73.800782-51.375-26.128906-26.128907-44.667968-53.582032-51.375-73.796876l31.335938-31.25c6.621094 20.214844 25.160156 47.578126 51.378906 73.710938 26.21875 26.128906 53.492188 44.753906 73.710938 51.375zm0 0" fill="#f0c419"/><path d="m330.515625 31.285156c-13.824219 13.824219 8.589844 58.640625 50.050781 100.113282 41.464844 41.472656 86.289063 63.875 100.113282 50.050781l31.285156-181.449219zm0 0" fill="#e64c3c"/></svg>