<svg xmlns="http://www.w3.org/2000/svg" width="48" height="48" viewBox="0 0 48 48"><g><rect class="nc-transparent-rect" x="0" y="0" width="48" height="48" rx="0" ry="0" fill="none" stroke="none"></rect><g class="nc-icon-wrapper"><path fill="#335262" d="M44,5H20c-0.553,0-1,0.447-1,1v4c0,0.553,0.447,1,1,1h24c0.553,0,1-0.447,1-1V6C45,5.447,44.553,5,44,5z"></path> <path fill="#335262" d="M44,21H20c-0.553,0-1,0.447-1,1v4c0,0.553,0.447,1,1,1h24c0.553,0,1-0.447,1-1v-4C45,21.447,44.553,21,44,21 z"></path> <path fill="#335262" d="M44,37H20c-0.553,0-1,0.447-1,1v4c0,0.553,0.447,1,1,1h24c0.553,0,1-0.447,1-1v-4C45,37.447,44.553,37,44,37 z"></path> <circle fill="#72C472" cx="8" cy="8" r="5"></circle> <circle fill="#72C472" cx="8" cy="24" r="5"></circle> <circle fill="#72C472" cx="8" cy="40" r="5"></circle></g></g></svg>