<svg xmlns="http://www.w3.org/2000/svg" width="48" height="48" viewBox="0 0 48 48"><g><rect class="nc-transparent-rect" x="0" y="0" width="48" height="48" rx="0" ry="0" fill="none" stroke="none"></rect><g class="nc-icon-wrapper"><path fill="#76B5B4" d="M18.29395,3.04443C18.19824,3.0144,18.09924,3.00293,18,3.00305v38.04309l12.70605,3.90942 c0.09564,0.02972,0.1947,0.04211,0.29395,0.04211V6.95398L18.29395,3.04443z"></path> <path fill="#BFDEE0" d="M17.75732,3.02979l-16,4C1.3125,7.14111,1,7.54102,1,8v36c0,0.30811,0.14209,0.59863,0.38477,0.78809 C1.56201,44.92676,1.7793,45,2,45c0.08105,0,0.1626-0.00977,0.24268-0.02979l15.72949-3.93262L18,41.04614V3.00305 C17.91852,3.00311,17.83679,3.00995,17.75732,3.02979z"></path> <path fill="#9BCED3" d="M46.60938,3.20703c-0.24561-0.18945-0.56689-0.25244-0.86719-0.17334L31.01953,6.95996L31,6.95398v38.0437 c0.08673,0,0.17358-0.00885,0.25781-0.03137l15-4C46.69531,40.84961,47,40.45312,47,40V4 C47,3.68945,46.85547,3.39648,46.60938,3.20703z"></path></g></g></svg>