<svg xmlns="http://www.w3.org/2000/svg" width="48" height="48" viewBox="0 0 48 48"><g><rect class="nc-transparent-rect" x="0" y="0" width="48" height="48" rx="0" ry="0" fill="none" stroke="none"></rect><g class="nc-icon-wrapper"><path d="M41,3V35L35,47H5a2,2,0,0,1-2-2V3A2,2,0,0,1,5,1H39A2,2,0,0,1,41,3Z" fill="#c19f85"></path> <path d="M32,13H20a1,1,0,0,1,0-2H32a1,1,0,0,1,0,2Z" fill="#fff"></path> <path d="M32,21H20a1,1,0,0,1,0-2H32a1,1,0,0,1,0,2Z" fill="#fff"></path> <path d="M24,29H20a1,1,0,0,1,0-2h4a1,1,0,0,1,0,2Z" fill="#fff"></path> <path d="M22,37H12a1,1,0,0,1,0-2H22a1,1,0,0,1,0,2Z" fill="#fff"></path> <circle cx="13" cy="12" r="2" fill="#efd358"></circle> <circle cx="13" cy="20" r="2" fill="#efd358"></circle> <circle cx="13" cy="28" r="2" fill="#efd358"></circle> <path d="M26,37A10,10,0,1,0,36,27,10,10,0,0,0,26,37Z" fill="#72c472"></path> <path d="M37,33v3h3a1,1,0,0,1,0,2H37v3a1,1,0,0,1-2,0V38H32a1,1,0,0,1,0-2h3V33a1,1,0,0,1,2,0Z" fill="#fff"></path></g></g></svg>