<?xml version="1.0" encoding="UTF-8" standalone="no"?>
<!DOCTYPE svg PUBLIC "-//W3C//DTD SVG 1.1//EN" "http://www.w3.org/Graphics/SVG/1.1/DTD/svg11.dtd">
<svg width="100%" height="100%" viewBox="0 0 116 138" version="1.1" xmlns="http://www.w3.org/2000/svg" xmlns:xlink="http://www.w3.org/1999/xlink" xml:space="preserve" xmlns:serif="http://www.serif.com/" style="fill-rule:evenodd;clip-rule:evenodd;stroke-linejoin:round;stroke-miterlimit:1.41421;">
    <g transform="matrix(1,0,0,1,-311,-134.242)">
        <g transform="matrix(0.585938,0,0,0.585938,0,0)">
            <g transform="matrix(0.310712,0,0,0.310712,475.429,157.149)">
                <g>
                    <g>
                        <g>
                            <g transform="matrix(0.355313,0,0,0.355313,495.681,610.589)">
                                <g transform="matrix(1,0,0,1,-893.75,-1066.67)">
                                    <g transform="matrix(4.16667,0,0,4.16667,0,0)">
                                        <path d="M361.272,444.004L74.957,336.633L289.063,235.32L136.038,155.901L143.258,141.989L324.336,235.968L115.136,334.96L366.777,429.329L361.272,444.004Z" style="fill:rgb(245,130,48);fill-rule:nonzero;"/>
                                        <path d="M67.135,444.004L61.632,429.329L313.273,334.96L104.073,235.968L285.151,141.989L292.37,155.901L139.347,235.32L353.45,336.633L67.135,444.004Z" style="fill:rgb(245,130,48);fill-rule:nonzero;"/>
                                        <rect x="113.873" y="227.809" width="200.662" height="15.673" style="fill:rgb(245,130,48);fill-rule:nonzero;"/>
                                        <rect x="87.207" y="327.962" width="253.984" height="15.674" style="fill:rgb(245,130,48);fill-rule:nonzero;"/>
                                        <path d="M257.045,15.841L257.045,85.682L171.363,85.682L171.363,15.841C171.363,7.095 178.448,0 187.193,0L241.215,0C249.96,0 257.045,7.095 257.045,15.841Z" style="fill:rgb(245,130,48);fill-rule:nonzero;"/>
                                        <path d="M257.045,15.841L257.045,85.682L201.101,85.682L201.101,15.841C201.101,7.095 208.196,0 216.942,0L241.215,0C249.96,0 257.045,7.095 257.045,15.841Z" style="fill:rgb(253,187,70);fill-rule:nonzero;"/>
                                        <path d="M362.444,433.915L284.536,152.555L143.872,152.555L65.954,433.915L33.436,433.915L120.024,121.209L308.384,121.209L394.971,433.915L362.444,433.915Z" style="fill:rgb(253,187,70);fill-rule:nonzero;"/>
                                        <path d="M428.408,452.117L428.408,493.798C428.408,503.85 420.258,512 410.206,512L18.202,512C8.15,512 0,503.85 0,493.798L0,452.117C0,442.065 8.15,433.915 18.202,433.915L410.206,433.915C420.258,433.915 428.408,442.065 428.408,452.117Z" style="fill:rgb(40,40,63);fill-rule:nonzero;"/>
                                        <path d="M428.408,452.117L428.408,493.798C428.408,503.85 420.258,512 410.206,512L84.02,512C73.978,512 65.828,503.85 65.828,493.798L65.828,452.117C65.828,442.065 73.978,433.915 84.02,433.915L410.206,433.915C420.258,433.915 428.408,442.065 428.408,452.117Z" style="fill:rgb(69,69,87);fill-rule:nonzero;"/>
                                        <path d="M339.707,76.456L339.707,105.263C339.707,114.072 332.57,121.208 323.762,121.208L104.647,121.208C95.838,121.208 88.701,114.072 88.701,105.263L88.701,76.456C88.701,67.647 95.838,60.51 104.647,60.51L323.762,60.51C332.57,60.51 339.707,67.647 339.707,76.456Z" style="fill:rgb(40,40,63);fill-rule:nonzero;"/>
                                        <path d="M339.707,76.456L339.707,105.263C339.707,114.072 332.57,121.208 323.762,121.208L149.608,121.208C140.8,121.208 133.663,114.072 133.663,105.263L133.663,76.456C133.663,67.647 140.8,60.51 149.608,60.51L323.762,60.51C332.57,60.51 339.707,67.647 339.707,76.456Z" style="fill:rgb(69,69,87);fill-rule:nonzero;"/>
                                    </g>
                                </g>
                            </g>
                            <g transform="matrix(0.887755,0,0,0.887755,54.7097,69.5306)">
                                <g transform="matrix(1.00513,0,0,1.20615,-30.5038,203.852)">
                                    <g>
                                        <path d="M507.25,219C543.812,304.312 361,350.954 361,408.583C361,483.322 433.814,544 523.5,544C613.186,544 686,483.322 686,408.583C686,350.954 587.687,243.375 507.25,219Z" style="fill:rgb(40,40,63);"/>
                                    </g>
                                </g>
                                <g transform="matrix(0.915897,0,0,1.20615,30.7085,203.852)">
                                    <g>
                                        <path d="M489.975,219C560.655,324.215 393.755,346.671 393.755,420.605C393.755,488.709 467.352,544.044 523.5,544C613.186,543.93 691.452,488.663 688.184,420.605C684.408,341.996 577.205,243.631 489.975,219Z" style="fill:rgb(69,69,87);"/>
                                    </g>
                                </g>
                            </g>
                        </g>
                    </g>
                </g>
            </g>
        </g>
    </g>
</svg>
