<?xml version="1.0" encoding="UTF-8" standalone="no"?><!DOCTYPE svg PUBLIC "-//W3C//DTD SVG 1.1//EN" "http://www.w3.org/Graphics/SVG/1.1/DTD/svg11.dtd"><svg width="100%" height="100%" viewBox="0 0 699 839" version="1.1" xmlns="http://www.w3.org/2000/svg" xmlns:xlink="http://www.w3.org/1999/xlink" xml:space="preserve" xmlns:serif="http://www.serif.com/" style="fill-rule:evenodd;clip-rule:evenodd;stroke-linejoin:round;stroke-miterlimit:1.41421;"><path d="M314.492,0c78.623,220.144 -314.492,340.501 -314.492,489.21c0,192.858 156.577,349.435 349.436,349.435c192.858,0 349.435,-156.577 349.435,-349.435c0,-148.709 -211.408,-426.312 -384.379,-489.21Zm-100.325,454.57c-4.131,8.445 -1.77,12.667 5.903,15.984l16.232,6.937c7.968,3.317 10.329,1.809 15.051,-4.826c5.312,-7.238 12.69,-11.158 24.495,-11.158c16.232,0 22.725,7.539 22.725,22.317l0,6.635c-4.722,-0.302 -13.281,-0.603 -20.954,-0.603c-48.4,0 -68.764,11.761 -68.764,49.459c0,32.27 13.871,49.762 67.584,49.762c25.38,0 44.563,-3.016 55.778,-8.143c8.559,-3.619 10.92,-6.635 10.92,-17.492l0,-76.602c0,-37.095 -15.937,-63.634 -65.813,-63.634c-31.874,0 -52.827,11.46 -63.157,31.364Zm300.142,32.27l0,38.904c0,39.508 24.2,63.333 70.239,63.333c46.63,0 70.535,-23.825 70.535,-63.333l0,-38.904c0,-39.508 -23.905,-63.634 -70.535,-63.634c-46.039,0 -70.239,24.126 -70.239,63.634Zm-450.95,-52.777c-9.739,3.92 -11.805,7.539 -11.805,17.491l0,121.84c0,8.445 2.656,11.159 10.919,11.159l22.725,0c8.263,0 10.919,-2.714 10.919,-11.159l0,-104.951c0,-0.603 0.591,-1.206 0.886,-1.206c6.197,-1.81 12.69,-2.714 20.659,-2.714c16.822,0 25.085,6.936 25.085,22.618l0,86.253c0,8.445 2.656,11.159 10.92,11.159l23.019,0c7.969,0 10.625,-2.714 10.625,-11.159l0,-87.761c0,-39.507 -20.069,-62.427 -63.747,-62.427c-29.217,0 -48.105,5.73 -60.205,10.857Zm319.619,-6.334l-17.707,0c-10.625,0 -12.985,2.715 -9.149,12.968l50.171,133.904c2.952,7.841 6.788,9.952 15.052,9.952l17.412,0c8.263,0 11.805,-2.111 14.756,-9.952l51.057,-133.904c3.836,-10.253 1.476,-12.968 -9.149,-12.968l-18.593,0c-12.986,0 -15.642,2.112 -18.593,11.461l-19.773,58.507c-5.302,15.954 -7.076,35.513 -7.083,35.587l-2.066,0c0,0 -2.066,-20.206 -7.378,-35.587l-20.069,-58.809c-2.656,-9.047 -6.197,-11.159 -18.888,-11.159Zm-84.405,97.412l0,25.333c0,1.508 -0.886,1.81 -2.066,2.111c-3.837,0.603 -10.92,1.206 -23.315,1.206c-16.527,0 -19.773,-6.031 -19.773,-14.777c0,-8.143 3.541,-14.476 20.363,-14.476c7.969,0 19.183,0.603 24.791,0.603Zm311.946,-38.904l0,39.809c0,14.476 -8.558,22.618 -25.971,22.618c-17.117,0 -25.675,-8.142 -25.675,-22.618l0,-39.809c0,-14.778 8.558,-22.619 25.675,-22.619c17.413,0 25.971,7.841 25.971,22.619Z" style="fill-opacity:0.74902;"/></svg>