<?xml version="1.0" encoding="UTF-8" standalone="no"?><!DOCTYPE svg PUBLIC "-//W3C//DTD SVG 1.1//EN" "http://www.w3.org/Graphics/SVG/1.1/DTD/svg11.dtd"><svg width="100%" height="100%" viewBox="0 0 240 288" version="1.1" xmlns="http://www.w3.org/2000/svg" xmlns:xlink="http://www.w3.org/1999/xlink" xml:space="preserve" xmlns:serif="http://www.serif.com/" style="fill-rule:evenodd;clip-rule:evenodd;stroke-linejoin:round;stroke-miterlimit:1.41421;"><path d="M107.992,0c26.998,75.594 -107.992,116.923 -107.992,167.988c0,66.224 53.766,119.991 119.991,119.991c66.225,0 119.991,-53.767 119.991,-119.991c0,-51.065 -72.594,-146.39 -131.99,-167.988Zm-34.45,156.093c-1.419,2.9 -0.608,4.349 2.027,5.488l5.574,2.382c2.736,1.14 3.546,0.622 5.168,-1.657c1.824,-2.485 4.358,-3.831 8.411,-3.831c5.574,0 7.804,2.589 7.804,7.663l0,2.278c-1.622,-0.103 -4.561,-0.207 -7.196,-0.207c-16.62,0 -23.612,4.039 -23.612,16.984c0,11.081 4.763,17.087 23.207,17.087c8.715,0 15.303,-1.035 19.154,-2.796c2.938,-1.242 3.749,-2.278 3.749,-6.006l0,-26.304c0,-12.738 -5.472,-21.851 -22.599,-21.851c-10.945,0 -18.14,3.935 -21.687,10.77Zm103.064,11.081l0,13.359c0,13.566 8.31,21.747 24.119,21.747c16.012,0 24.221,-8.181 24.221,-21.747l0,-13.359c0,-13.567 -8.209,-21.851 -24.221,-21.851c-15.809,0 -24.119,8.284 -24.119,21.851Zm-154.85,-18.123c-3.344,1.346 -4.053,2.589 -4.053,6.006l0,41.838c0,2.9 0.912,3.832 3.749,3.832l7.804,0c2.837,0 3.749,-0.932 3.749,-3.832l0,-36.038c0,-0.208 0.203,-0.415 0.304,-0.415c2.129,-0.621 4.358,-0.932 7.094,-0.932c5.777,0 8.614,2.382 8.614,7.767l0,29.618c0,2.9 0.912,3.832 3.75,3.832l7.905,0c2.736,0 3.648,-0.932 3.648,-3.832l0,-30.136c0,-13.566 -6.891,-21.436 -21.89,-21.436c-10.033,0 -16.519,1.967 -20.674,3.728Zm109.753,-2.175l-6.08,0c-3.649,0 -4.459,0.932 -3.142,4.453l17.228,45.981c1.014,2.692 2.331,3.417 5.169,3.417l5.979,0c2.837,0 4.053,-0.725 5.067,-3.417l17.532,-45.981c1.317,-3.521 0.507,-4.453 -3.142,-4.453l-6.384,0c-4.459,0 -5.371,0.725 -6.385,3.935l-6.79,20.091c-1.82,5.478 -2.429,12.195 -2.432,12.22l-0.709,0c0,0 -0.71,-6.939 -2.534,-12.22l-6.891,-20.194c-0.912,-3.107 -2.128,-3.832 -6.486,-3.832Zm-28.983,33.45l0,8.699c0,0.518 -0.304,0.621 -0.71,0.725c-1.317,0.207 -3.749,0.414 -8.006,0.414c-5.675,0 -6.79,-2.071 -6.79,-5.074c0,-2.797 1.216,-4.971 6.993,-4.971c2.736,0 6.587,0.207 8.513,0.207Zm107.118,-13.359l0,13.669c0,4.971 -2.939,7.767 -8.919,7.767c-5.877,0 -8.816,-2.796 -8.816,-7.767l0,-13.669c0,-5.075 2.939,-7.767 8.816,-7.767c5.98,0 8.919,2.692 8.919,7.767Z" style="fill-opacity:0.74902;"/></svg>