<?xml version="1.0" encoding="UTF-8" standalone="no"?><!DOCTYPE svg PUBLIC "-//W3C//DTD SVG 1.1//EN" "http://www.w3.org/Graphics/SVG/1.1/DTD/svg11.dtd"><svg width="100%" height="100%" viewBox="0 0 79 92" version="1.1" xmlns="http://www.w3.org/2000/svg" xmlns:xlink="http://www.w3.org/1999/xlink" xml:space="preserve" xmlns:serif="http://www.serif.com/" style="fill-rule:evenodd;clip-rule:evenodd;stroke-linejoin:round;stroke-miterlimit:1.41421;"><g><g><path d="M53.774,63.291c4.025,-0.697 8.074,-1.714 11.831,-3.137l0.181,-0.069c1.546,-0.56 3.064,-1.223 4.498,-1.958l1.377,-0.697l2.333,-1.448l0.04,-0.027c0.845,-0.564 1.646,-1.175 2.391,-1.822l0,13.703c1.212,1.735 1.864,3.599 1.864,5.533c0,10.03 -17.54,18.174 -39.145,18.174c-21.604,0 -39.144,-8.144 -39.144,-18.174c0,-1.934 0.652,-3.798 1.864,-5.533c1.308,-1.899 1.302,-1.9 0,0l0,-14.505c0.923,0.909 1.935,1.743 2.986,2.483l3.111,1.933c0,0 3.392,1.667 4.804,2.227l0.072,0.03c3.635,1.489 7.471,2.591 11.421,3.345l0.001,-0.004l0.31,0.062l0.058,0.011c0.898,-0.002 1.626,-0.732 1.626,-1.631c0,-0.805 -0.584,-1.475 -1.349,-1.574l0.001,-0.005c-0.646,-0.122 -1.283,-0.251 -1.912,-0.389l-3.638,-0.896l-0.645,-0.158l-0.44,-0.148c-1.311,-0.391 -2.568,-0.816 -3.777,-1.264l-0.014,-0.005c-4.898,-1.772 -9.338,-4.238 -11.898,-7.898l-0.009,-0.011c-1.507,-1.887 -2.313,-3.951 -2.313,-6.101c0,-1.788 0.558,-3.515 1.605,-5.144l0,-8.867c0.507,0.487 1.04,0.952 1.601,1.391l1.261,0.959l2.291,1.413l0.006,-0.005l0.85,0.521c0.113,0.06 1.508,0.767 1.508,0.767l0.083,0.04c0.049,0.024 0.099,0.048 0.149,0.071c0.015,0.008 0.03,0.015 0.045,0.022c0.042,0.02 0.084,0.04 0.126,0.06l0.072,0.034l0.092,0.044c0.191,0.09 0.383,0.179 0.576,0.267l0.049,0.022l0.06,0.028c0,0 0.087,0.039 0.087,0.039c0.036,0.016 0.071,0.032 0.107,0.048c0.132,0.059 0.265,0.118 0.398,0.176l0.101,0.045l0.095,0.041l0.056,0.024l0.097,0.042c0.208,0.089 0.416,0.176 0.625,0.263l0.083,0.034l0.043,0.018l0.112,0.046l0.021,0.008c0.029,0.012 0.059,0.024 0.088,0.036l0.056,0.023l0.048,0.019c0.021,0.008 0.043,0.017 0.064,0.026l0.062,0.024l0.07,0.028l0.059,0.024c0.039,0.015 0.078,0.031 0.117,0.046l0.079,0.031c0.016,0.006 0.032,0.012 0.048,0.019c0.019,0.007 0.038,0.014 0.057,0.022l2.376,0.877l1.394,0.438c5.799,1.825 11.967,2.768 18.239,2.991c5.789,0.201 11.641,-0.217 17.325,-1.128c0,0 4.994,-0.964 4.994,-0.964l0.075,-0.02l0.079,-0.015l1.429,-0.387l3.308,-0.882l0.152,-0.055l0.141,-0.038l1.385,-0.508l2.973,-1.064l0.236,-0.113c1.203,-0.499 2.352,-1.04 3.46,-1.655l0.577,-0.276l2.783,-1.741l0.989,-0.78l1.304,-1.029l0,19.505c-1.824,2.493 -4.78,4.741 -8.605,6.608l-1.16,0.556l-0.425,0.203l-1.553,0.631l-0.486,0.198c-3.329,1.267 -7.108,2.284 -11.207,2.99l-0.008,0.001l-0.018,0.004c-0.613,0.201 -1.047,0.762 -1.047,1.419c0,0.84 0.71,1.522 1.587,1.528l0.072,-0.012l0.008,-0.001l0.191,-0.033Zm-14.799,-14.608c0.313,3.552 -2.758,6.554 -5.201,8.645c-2.116,1.79 -4.832,3.358 -5.643,5.8c-0.327,0.987 -0.098,2.151 0.155,3.249c1.509,6.531 9.83,10.616 16.054,7.231c4.124,-2.242 6.796,-7.381 5.427,-11.856c-1.202,-3.928 -3.858,-7.366 -6.928,-10.236c-1.153,-1.078 -2.405,-2.06 -3.788,-2.827c0,0 -0.085,-0.095 -0.076,-0.006Zm14.582,14.516l0.026,0.125l-0.594,-2.939l0.568,2.814Zm-34.202,-4.276l3.638,0.896l-2.241,-0.502l-1.397,-0.394Zm44.942,-1.563l-0.101,0.035l0.486,-0.198l-0.385,0.163Zm2.78,-1.173l-0.417,0.176l1.16,-0.556l-0.743,0.38Zm9.348,-18.71c1.385,1.825 2.123,3.803 2.123,5.861c0,2.058 -0.738,4.037 -2.123,5.861l0,-11.722Zm-35.044,2.944c-0.061,0.002 -0.121,0.004 -0.182,0.007l0.091,-0.004l0.091,-0.003Zm-8.214,-0.084l0.019,0.001l-0.019,-0.001l-0.013,-0.001l0.013,0.001Zm-0.803,-0.053l0.038,0.003l-0.038,-0.003l-0.04,-0.002l0.04,0.002Zm-2.068,-0.174l-0.057,-0.006l0.086,0.008l0.086,0.009l-0.044,-0.005l-0.071,-0.006Zm15.883,-0.001l-0.042,0.003l0.042,-0.003l0.048,-0.005l-0.048,0.005Zm-16.326,-0.044l-0.106,-0.012l-0.147,-0.015l0.134,0.014l0.026,0.003l0.093,0.01c0,0 0.134,0.013 0.134,0.013l0.085,0.009l0.033,0.004l-0.067,-0.007l-0.026,-0.003l-0.01,-0.001l-0.149,-0.015l0,0Zm17.231,-0.044l-0.004,0.001l-0.038,0.004l-0.006,0l0.002,0l0.004,0l0.019,-0.002l0.019,-0.002l0.002,-0.001l0.002,0Zm-18.129,-0.056c0.158,0.019 0.317,0.037 0.476,0.054c-0.159,-0.017 -0.318,-0.035 -0.476,-0.054Zm18.172,0.052l-0.001,0l0,0l0.001,0Zm0.047,-0.005l-0.007,0.001l0.004,-0.001l0.003,0Zm-18.363,-0.064l-0.006,0l-0.144,-0.018l-0.076,-0.009l-0.142,-0.017l0.115,0.014l0.049,0.006l0.054,0.006l0.115,0.014l0.104,0.012l0.034,0.004l-0.057,-0.006l-0.046,-0.006Zm-0.78,-0.097l-0.05,-0.006l0.101,0.013l-0.051,-0.007Zm22.193,-0.202c-0.326,0.044 -0.652,0.087 -0.979,0.128c0.327,-0.041 0.653,-0.084 0.979,-0.128Zm0.563,-0.078c-0.155,0.022 -0.309,0.044 -0.464,0.065c0.155,-0.021 0.309,-0.043 0.464,-0.065Zm1.265,-0.187c-0.134,0.021 -0.268,0.041 -0.402,0.061c0.134,-0.02 0.268,-0.04 0.402,-0.061l0.134,-0.021l-0.134,0.021Zm0.312,-0.049l-0.002,0l0.002,0l0.041,-0.007l-0.041,0.007Zm0.178,-0.028l-0.01,0.001l0.01,-0.001l3.788,-0.736l-3.788,0.736Zm-28.882,-0.166c0.185,0.036 0.37,0.072 0.556,0.106c-0.186,-0.034 -0.371,-0.07 -0.556,-0.106Zm-0.714,-0.145l0.006,0.002l-0.077,-0.016l0.071,0.014Zm-0.922,-0.199l-0.068,-0.015l0.073,0.017l0.044,0.01l0.086,0.019l0.045,0.009l0.087,0.019l0.085,0.019l-0.04,-0.009l-0.006,-0.001l-0.039,-0.009l-0.005,-0.001l-0.041,-0.009l-0.041,-0.009l-0.005,-0.001l-0.04,-0.008l-0.004,-0.001l-0.041,-0.01l-0.041,-0.008l-0.006,-0.002l-0.038,-0.008l-0.005,-0.002Zm-0.4,-0.09c0.015,0.003 0.03,0.007 0.045,0.01l-0.06,-0.014l0.015,0.004Zm-0.369,-0.086c0.047,0.011 0.093,0.022 0.14,0.033l-0.07,-0.017l-0.07,-0.016Zm-0.134,-0.032c-0.07,-0.017 -0.139,-0.033 -0.208,-0.05c0.067,0.016 0.135,0.032 0.202,0.049l0.07,0.016l-0.064,-0.015Zm-0.613,-0.15c0.016,0.004 0.033,0.008 0.049,0.012l-0.066,-0.016l0.017,0.004Zm-0.223,-0.056l-0.015,-0.004l-0.128,-0.032l0.109,0.028l0.069,0.017l0.046,0.012l0.083,0.021l-0.113,-0.029l-0.041,-0.01l-0.01,-0.003Zm-0.423,-0.109l0.069,0.018l-0.069,-0.018l-0.027,-0.007l0.027,0.007Zm-0.556,-0.148c0.153,0.042 0.305,0.082 0.458,0.123c-0.153,-0.041 -0.305,-0.081 -0.458,-0.123Zm39.813,-0.206l-0.916,0.244l0.916,-0.244l2.891,-0.783l-2.891,0.783Zm-40.431,0.035l0.013,0.004l-0.013,-0.004l-0.032,-0.009l0.032,0.009Zm-0.567,-0.164c0.064,0.019 0.129,0.038 0.193,0.057c-0.064,-0.019 -0.129,-0.038 -0.193,-0.057l-0.064,-0.018l0.064,0.018Zm-0.276,-0.081l0.067,0.02c-0.045,-0.014 -0.089,-0.027 -0.134,-0.04l0.067,0.02Zm-0.751,-0.23l-0.117,-0.037l-0.271,-0.085c0,0 0.271,0.085 0.271,0.085l0.097,0.03l0.078,0.025l-0.058,-0.018Zm21.797,-37.48c-12.298,0.054 -25.702,1.836 -34.606,9.903c-3.211,2.909 -5.383,7.639 -3.489,11.932c2.754,6.241 10.173,9.596 17.655,11.765c15.572,4.515 33.199,4.069 47.524,-2.198c6.854,-2.998 14.451,-8.138 11.862,-15.994c-2.092,-6.349 -8.813,-9.495 -14.903,-11.664c-7.656,-2.726 -15.824,-3.756 -24.043,-3.744Zm-25.683,36.128l0.257,0.095l-0.257,-0.095l-0.062,-0.024l0.062,0.024Zm-0.236,-0.092c0.021,0.008 0.042,0.016 0.062,0.024l-0.082,-0.032l0.02,0.008Zm-0.161,-0.149l-0.008,-0.003l-0.004,-0.001l0.012,0.004Zm-0.035,-0.014l-0.015,-0.006l0.017,0.007l-0.002,-0.001Zm-0.23,-0.092l0,0l-0.003,-0.001l0.003,0.001Zm-0.264,-0.108c0,0 -0.014,-0.006 -0.014,-0.006c0,0 0,0 0,0l-0.001,0l0.072,0.029c0,0 0.077,0.032 0.077,0.032l-0.039,-0.016l-0.038,-0.016l-0.014,-0.005c0,0 -0.043,-0.018 -0.043,-0.018Zm-0.775,-0.242l0.06,0.026l-0.06,-0.026l-0.04,-0.017l0.04,0.017Zm-0.874,-0.47l-0.003,-0.002l0.004,0.002l-0.001,0c0,0 0,0 0,0Zm-0.097,-0.044l-0.005,-0.003l-0.001,0l0.006,0.003Zm12.764,-20.937c3.601,0 6.524,1.357 6.524,3.029c0,1.672 -2.923,3.029 -6.524,3.029c-3.601,0 -6.524,-1.357 -6.524,-3.029c0,-1.672 2.923,-3.029 6.524,-3.029Z" style="fill:#292741;"/><path d="M34.397,59.813c0.347,0.039 0.551,0.377 0.459,0.695c-0.177,0.616 -0.701,1.03 -0.95,1.515c-1.167,2.274 -0.825,5.09 0.334,7.321c0.08,0.158 0.039,-0.027 0.267,0.574c0.176,0.461 0.034,1.66 -1.533,0.211c-1.965,-1.816 -3.219,-4.697 -2.033,-7.154c0.735,-1.522 2.062,-3.219 3.456,-3.162Z" style="fill:#292741;fill-rule:nonzero;"/></g></g></svg>