<?xml version="1.0" encoding="UTF-8" standalone="no"?>
<!DOCTYPE svg PUBLIC "-//W3C//DTD SVG 1.1//EN" "http://www.w3.org/Graphics/SVG/1.1/DTD/svg11.dtd">
<svg width="100%" height="100%" viewBox="0 0 564 670" version="1.1" xmlns="http://www.w3.org/2000/svg" xmlns:xlink="http://www.w3.org/1999/xlink" xml:space="preserve" xmlns:serif="http://www.serif.com/" style="fill-rule:evenodd;clip-rule:evenodd;stroke-linejoin:round;stroke-miterlimit:1.41421;">
    <g transform="matrix(1,0,0,1,-230.349,-177.073)">
        <path d="M490.474,177.908C531.719,192.953 568.638,218.954 602.187,247.994C657.566,295.93 704.968,353.326 742.146,416.474C762.121,450.402 779.483,486.382 788.474,524.547C798.406,566.702 793.337,611.564 779.673,653.175C748.011,749.596 661.48,825.755 559.215,843.051C483.754,855.813 403.297,836.586 341.481,789.475C276.566,740.004 234.583,661.435 230.656,578.908C230.498,575.597 230.398,572.283 230.356,568.968C229.987,539.835 244.497,512.917 263.877,490.215C317.225,427.721 392.279,387.624 443.554,322.074C461.116,299.621 475.381,274.018 477.879,245.017C479.275,228.816 476.642,212.342 471.199,197.021L470.394,193.348C470.439,192.096 470.327,190.828 470.528,189.591C471.345,184.57 474.861,180.165 479.434,178.209C482.548,176.877 483.502,177.163 486.808,177.073C488.03,177.351 489.252,177.63 490.474,177.908Z" style="fill-opacity:0.74902;"/>
    </g>
</svg>
