<svg version="1.1" xmlns="http://www.w3.org/2000/svg" xmlns:xlink="http://www.w3.org/1999/xlink" x="0px" y="0px" viewBox="0 0 48 48" xml:space="preserve"><title>oil</title><g class="nc-icon-wrapper"><rect x="11" y="6" width="4" height="10" fill="#444"/> <path d="M3,6H23a1,1,0,0,0,0-2H3A1,1,0,0,0,3,6Z" fill="#b3b3b3"/> <path d="M46.577,14.183a1,1,0,0,0-.91-.127L29.423,19.789,24.848,12.47A1,1,0,0,0,24,12H5a4,4,0,0,0-4,4V31a4,4,0,0,0,4,4H28a1,1,0,0,0,.641-.231l18-15A1,1,0,0,0,47,19V15A1,1,0,0,0,46.577,14.183Z" fill="#e86c60"/> <path d="M41.293,32.293C41.117,32.468,37,36.636,37,41a5,5,0,0,0,10,0c0-4.364-4.117-8.532-4.293-8.707A1,1,0,0,0,41.293,32.293Z" fill="#444"/></g></svg>