<svg xmlns="http://www.w3.org/2000/svg" xmlns:xlink="http://www.w3.org/1999/xlink" xmlns:fi="http://pattern.flaticon.com/" x="0" y="0" width="700" height="350" viewBox="0 0 700 350"><rect x="0px" y="0px" width="100%" height="100%" opacity="0" fill="#4caf50"/><defs><g transform="matrix(0.04032257944345474 0 0 0.04032257944345474 78.5 340)" id="L1_93"><path d="m288 32c-22.054688 0-40 17.945312-40 40h16c0-13.230469 10.769531-24 24-24zm0 0"/><path d="m312 176v-36.199219c27.921875-9.914062 48-36.519531 48-67.800781 0-39.703125-32.304688-72-72-72s-72 32.296875-72 72c0 31.28125 20.078125 57.886719 48 67.800781v36.199219h-152v-96h-56c-30.878906 0-56 25.128906-56 56v304c0 30.871094 25.121094 56 56 56h440v-320zm168 144h-38.113281c-7.984375 0-15.160157-4.441406-18.726563-11.574219-6.304687-12.59375-18.96875-20.425781-33.046875-20.425781h-1.167969c-11.554687 0-20.945312-9.398438-20.945312-20.945312v-7.0625c0-9.863282-3.839844-19.144532-10.824219-26.128907l-7.039062-7.046875c-3.960938-3.960937-6.136719-9.214844-6.136719-14.808594v-20.007812h136zm-248-248c0-30.871094 25.121094-56 56-56s56 25.128906 56 56-25.121094 56-56 56-56-25.128906-56-56zm56 72c2.703125 0 5.367188-.175781 8-.472656v205.160156l-8 8-8-8v-205.160156c2.632812.296875 5.296875.472656 8 .472656zm0 235.3125 24-24v-163.3125h16v20.007812c0 9.863282 3.839844 19.144532 10.824219 26.128907l7.039062 7.046875c3.960938 3.960937 6.136719 9.214844 6.136719 14.808594v7.0625c0 20.378906 16.574219 36.945312 36.945312 36.945312h1.167969c7.984375 0 15.160157 4.441406 18.726563 11.574219 6.304687 12.59375 18.960937 20.425781 33.039062 20.425781h38.121094v56h-17.574219c-6.355469 0-12.25-3.160156-15.769531-8.441406-6.488281-9.734375-17.359375-15.558594-29.082031-15.558594h-15.335938c-14.367187 0-27.109375 8.625-32.453125 21.96875l-2.441406 6.121094c-2.886719 7.238281-9.800781 11.910156-17.589844 11.910156h-26.59375c-9.335937 0-18.121094 3.632812-24.71875 10.230469l-8.210937 8.21875c-3.566407 3.582031-8.328125 5.550781-13.398438 5.550781h-1.886719c-19.265624 0-34.945312 15.679688-34.945312 34.945312v13.054688h-32v-8.609375c0-22.382813-8.710938-43.421875-24.535156-59.238281-4.808594-4.816406-7.464844-11.214844-7.464844-18.015625 0-11.710938 7.9375-21.871094 19.296875-24.710938l16.984375-4.25c16.320312-4.070312 27.71875-18.679687 27.71875-35.503906 0-13.953125-7.753906-26.496094-20.230469-32.734375l-16.386719-8.183594c-7.023437-3.515625-11.382812-10.578125-11.382812-18.425781v-7.023437c0-12.265626-6.097656-23.648438-16.296875-30.457032l-22.527344-15.015625c-5.742187-3.824219-9.175781-10.230469-9.175781-17.136719v-8.695312h120v163.3125zm-272-243.3125c0-22.054688 17.945312-40 40-40h40v288h-40c-15.65625 0-29.832031 6.457031-40 16.839844zm0 304c0-22.054688 17.945312-40 40-40h56v-208h16v8.695312c0 12.265626 6.097656 23.648438 16.296875 30.457032l22.527344 15.015625c5.742187 3.824219 9.175781 10.230469 9.175781 17.136719v7.023437c0 13.953125 7.753906 26.496094 20.230469 32.734375l16.386719 8.183594c7.023437 3.515625 11.382812 10.578125 11.382812 18.425781 0 9.472656-6.414062 17.6875-15.601562 19.984375l-16.984376 4.238281c-18.492187 4.617188-31.414062 21.167969-31.414062 40.242188 0 11.078125 4.3125 21.496093 12.152344 29.328125 12.800781 12.800781 19.847656 29.816406 19.847656 47.925781v8.609375h-136c-22.054688 0-40-17.945312-40-40zm240 40v-13.054688c0-10.449218 8.496094-18.945312 18.953125-18.945312h1.886719c9.335937 0 18.121094-3.632812 24.71875-10.230469l8.210937-8.21875c3.566407-3.582031 8.328125-5.550781 13.398438-5.550781h26.59375c14.367187 0 27.109375-8.625 32.453125-21.96875l2.441406-6.121094c2.894531-7.238281 9.808594-11.910156 17.601562-11.910156h15.335938c6.351562 0 12.246094 3.160156 15.765625 8.441406 6.472656 9.734375 17.34375 15.558594 29.066406 15.558594h17.574219v72zm0 0"/><path d="m448 208h16v16h-16zm0 0"/><path d="m80 416h16v16h-16zm0 0"/><path d="m152 448h16v16h-16zm0 0"/><path d="m400 424h16v16h-16zm0 0"/><path d="m320 448h16v16h-16zm0 0"/><path d="m128 304h16v16h-16zm0 0"/></g><g transform="matrix(0.08064515888690948 0 0 0.08064515888690948 155 330)" id="L1_94"><path d="m120 448h48v16h-48zm0 0"/><path d="m496 112h-48.351562c-3.519532-35.871094-33.847657-64-70.625-64h-2.046876c-36.777343 0-67.105468 28.128906-70.625 64h-16.351562v-72c0-22.054688-17.945312-40-40-40h-208c-22.054688 0-40 17.945312-40 40v416c0 22.054688 17.945312 40 40 40h208c22.054688 0 40-17.945312 40-40v-88h208zm-121.023438-48h2.046876c30.3125 0 54.976562 24.664062 54.976562 54.976562 0 9.71875-2.585938 19.296876-7.496094 27.695313l-43.382812 74.375c-2.128906 3.632813-8.136719 3.632813-10.242188 0l-43.390625-74.382813c-4.902343-8.390624-7.488281-17.96875-7.488281-27.6875 0-30.3125 24.664062-54.976562 54.976562-54.976562zm-17.914062 165.128906c3.921875 6.703125 11.175781 10.871094 18.9375 10.871094s15.015625-4.167969 18.945312-10.878906l7.65625-13.121094h29.398438v40h-160v-128h32.601562c1.207032 9.398438 4.269532 18.503906 9.0625 26.734375zm-229.0625-117.128906v256h112v16h-192v-288h224v16zm128 240h-112v-32h112zm-48-224v32h-64v-32zm-168-112h208c13.230469 0 24 10.769531 24 24v8h-256v-8c0-13.230469 10.769531-24 24-24zm208 464h-208c-13.230469 0-24-10.769531-24-24v-24h256v24c0 13.230469-10.769531 24-24 24zm24-64h-256v-352h256v16h-240v320h224v-32h16zm48-64v-32h128v-16h-144v48h-32v-48h-128v-32h80v-64h-48v16h32v32h-64v-32h16v-16h-16v-32h80v-48h32v144h192v-72h-36.0625l26.398438-45.265625c4.800781-8.230469 7.855468-17.34375 9.0625-26.734375h32.601562v176h-16v16h16v32zm0 0"/><path d="m376 160c22.054688 0 40-17.945312 40-40s-17.945312-40-40-40-40 17.945312-40 40 17.945312 40 40 40zm0-64c13.230469 0 24 10.769531 24 24s-10.769531 24-24 24-24-10.769531-24-24 10.769531-24 24-24zm0 0"/></g><g transform="matrix(0.1411290317773819 0 0 0.1411290317773819 315 140)" id="L1_95"><path d="m120 208c48.519531 0 88-39.480469 88-88s-39.480469-88-88-88-88 39.480469-88 88 39.480469 88 88 88zm0-160c39.703125 0 72 32.296875 72 72s-32.296875 72-72 72-72-32.296875-72-72 32.296875-72 72-72zm0 0"/><path d="m152.945312 120-32.945312-65.886719-32.945312 65.886719 32.945312 65.886719zm-44 8h22.109376l-11.054688 22.113281zm22.109376-16h-22.109376l11.054688-22.113281zm0 0"/><path d="m440 80h-56v96h-157.945312c8.875-16.734375 13.945312-35.777344 13.945312-56 0-66.167969-53.832031-120-120-120s-120 53.832031-120 120c0 20.222656 5.070312 39.265625 13.945312 56h-13.945312v320h440c30.871094 0 56-25.128906 56-56v-304c0-30.871094-25.128906-56-56-56zm-156.28125 285.167969 20.679688 5.167969c9.1875 2.304687 15.601562 10.519531 15.601562 19.992187v8.144531c0 4.421875-1.464844 8.816406-4.121094 12.359375-12.816406 17.078125-19.878906 38.273438-19.878906 59.640625v9.527344h-40v-13.054688c0-19.265624-15.679688-34.945312-34.945312-34.945312h-1.886719c-5.0625 0-9.824219-1.96875-13.398438-5.542969l-8.21875-8.21875c-6.605469-6.605469-15.382812-10.238281-24.71875-10.238281h-26.59375c-7.789062 0-14.695312-4.671875-17.582031-11.910156l-2.457031-6.128906c-5.34375-13.335938-18.070313-21.960938-32.4375-21.960938h-15.335938c-11.714843 0-22.578125 5.824219-29.082031 15.558594-3.519531 5.28125-9.414062 8.441406-15.769531 8.441406h-17.574219v-80h13.839844c13.433594 0 26.734375-4.441406 37.480468-12.496094 18.238282-13.6875 44.589844-15.039062 64.136719-3.304687l17.632813 10.578125c5.6875 3.414062 12.191406 5.222656 18.832031 5.222656h24.628906c17.386719 0 32.480469-12.367188 35.882813-29.40625l.367187-1.832031c1.375-6.851563 6.0625-12.496094 12.550781-15.089844l7.632813-3.054687c13.984375-5.59375 23.015625-18.929688 23.015625-33.976563v-36.640625h80v8.695312c0 6.898438-3.433594 13.3125-9.167969 17.144532l-22.527343 15.015625c-10.207032 6.800781-16.304688 18.183593-16.304688 30.449219v7.023437c0 7.847656-4.359375 14.910156-11.382812 18.425781l-16.394532 8.183594c-12.46875 6.238281-20.222656 18.78125-20.222656 32.734375 0 16.824219 11.398438 31.433594 27.71875 35.496094zm-163.71875-349.167969c57.34375 0 104 46.65625 104 104s-46.65625 104-104 104-104-46.65625-104-104 46.65625-104 104-104zm0 224c39.144531 0 73.855469-18.921875 95.777344-48h40.222656v36.640625c0 8.472656-5.089844 15.976563-12.953125 19.128906l-7.632813 3.054688c-11.519531 4.601562-19.855468 14.617187-22.292968 26.792969l-.367188 1.832031c-1.921875 9.589843-10.417968 16.550781-20.203125 16.550781h-24.628906c-3.738281 0-7.402344-1.015625-10.59375-2.9375l-17.640625-10.574219c-24.960938-14.984375-58.65625-13.265625-81.960938 4.222657-7.992187 5.992187-17.894531 9.289062-27.886718 9.289062h-13.839844v-104h8.222656c21.921875 29.078125 56.632813 48 95.777344 48zm-104 168h17.574219c11.714843 0 22.578125-5.824219 29.082031-15.558594 3.519531-5.28125 9.414062-8.441406 15.769531-8.441406h15.335938c7.789062 0 14.695312 4.671875 17.582031 11.910156l2.457031 6.128906c5.34375 13.335938 18.070313 21.960938 32.4375 21.960938h26.59375c5.0625 0 9.824219 1.96875 13.398438 5.542969l8.21875 8.21875c6.605469 6.605469 15.382812 10.238281 24.71875 10.238281h1.886719c10.449218 0 18.945312 8.496094 18.945312 18.945312v13.054688h-224zm424 72h-128v-9.527344c0-17.929687 5.921875-35.703125 16.6875-50.046875 4.710938-6.296875 7.3125-14.097656 7.3125-21.953125v-8.144531c0-16.832031-11.398438-31.433594-27.71875-35.503906l-20.679688-5.167969c-9.1875-2.296875-15.601562-10.511719-15.601562-19.984375 0-7.847656 4.359375-14.910156 11.382812-18.425781l16.394532-8.183594c12.480468-6.238281 20.222656-18.78125 20.222656-32.734375v-7.023437c0-6.898438 3.433594-13.3125 9.167969-17.144532l22.527343-15.015625c10.207032-6.800781 16.304688-18.183593 16.304688-30.449219v-8.695312h16v208h56c22.054688 0 40 17.945312 40 40s-17.945312 40-40 40zm40-79.160156c-10.167969-10.382813-24.34375-16.839844-40-16.839844h-40v-288h40c22.054688 0 40 17.945312 40 40zm0 0"/><path d="m352 256h16v16h-16zm0 0"/><path d="m320 320h16v16h-16zm0 0"/><path d="m368 448h16v16h-16zm0 0"/><path d="m416 416h16v16h-16zm0 0"/><path d="m32 448h16v16h-16zm0 0"/><path d="m80 408h16v16h-16zm0 0"/><path d="m144 440h16v16h-16zm0 0"/><path d="m176 248h16v16h-16zm0 0"/><path d="m32 248h16v16h-16zm0 0"/></g><g transform="matrix(0.1363201766329438 -0.03652688124086529 0.03652688124086529 0.1363201766329438 133.17240036924156 150.54347767348216)" id="L1_96"><path d="m248 192c39.695312 0 72-32.304688 72-72s-32.304688-72-72-72-72 32.304688-72 72 32.304688 72 72 72zm0-128c30.878906 0 56 25.121094 56 56s-25.121094 56-56 56-56-25.121094-56-56 25.121094-56 56-56zm0 0"/><path d="m240 112h16v16h-16zm0 0"/><path d="m272 112h16v16h-16zm0 0"/><path d="m208 112h16v16h-16zm0 0"/><path d="m456 128h-88.34375c.222656-2.960938.34375-5.9375.34375-8.929688 0-65.65625-53.414062-119.070312-119.070312-119.070312h-1.851563c-65.664063 0-119.078125 53.414062-119.078125 119.070312 0 2.992188.121094 5.96875.34375 8.929688h-88.34375c-22.054688 0-40 17.945312-40 40v240c0 22.054688 17.945312 40 40 40h104v32h-32v16h272v-16h-32v-32h104c22.054688 0 40-17.945312 40-40v-240c0-22.054688-17.945312-40-40-40zm24 40v120h-32v-144h8c13.230469 0 24 10.769531 24 24zm-96-24v144h-102.855469l67.625-104.03125c7.984375-12.289062 13.558594-25.816406 16.582031-39.96875zm-136.929688-128h1.851563c56.839844 0 103.078125 46.238281 103.078125 103.070312 0 19.992188-5.761719 39.410157-16.65625 56.167969l-81.6875 125.699219c-2.496094 3.839844-8.808594 3.839844-11.304688 0l-81.695312-125.691406c-10.894531-16.757813-16.65625-36.183594-16.65625-56.175782 0-56.832031 46.238281-103.070312 103.070312-103.070312zm-99.832031 167.96875 67.617188 104.03125h-102.855469v-144h18.648438c3.023437 14.144531 8.597656 27.679688 16.589843 39.96875zm-107.238281-39.96875h8v16h16v-16h32v160h129.257812l3.671876 5.65625c4.214843 6.480469 11.34375 10.34375 19.070312 10.34375s14.855469-3.863281 19.0625-10.34375l3.679688-5.65625h129.257812v-160h32v160h48v32h-16v16h16v32h-64v-32h32v-16h-48v48h-32v-48h-176v48h-32v-48h-64v48h-32v-48h-48v-32h48v-128h-16v112h-32v-120c0-13.230469 10.769531-24 24-24zm312 240h-144v-32h144zm-208 0h-32v-32h32zm-96 0h-32v-32h32zm288 96h-176v-32h176zm120-48h-416c-13.230469 0-24-10.769531-24-24v-8h464v8c0 13.230469-10.769531 24-24 24zm0 0"/></g><g transform="matrix(0.18024802207946777 0 0 0.18024802207946777 217.5 217.5)" id="L1_97"><path d="m264.15625 209.753906 87.097656-54.441406-87.097656-54.441406v30.441406h-56c-13.230469 0-24 10.765625-24 24v96h48v-72h32zm-48-46.441406v72h-16v-80c0-4.417969 3.582031-8 8-8h72v-17.558594l40.902344 25.558594-40.902344 25.558594v-17.558594zm0 0"/><path d="m349.925781 435.3125h-69.769531v-108.6875l147.3125-147.3125-179.3125-179.3125-179.3125 179.3125 147.3125 147.3125v108.6875h-69.769531l-16 48h-98.230469v16h432v-16h-98.242188zm-101.769531-412.6875 156.6875 156.6875-156.6875 156.6875-156.6875-156.6875zm0 336 16-16v60.6875h-32v-60.6875zm-16 60.6875h32v16h-32zm-74.230469 32h180.460938l10.671875 32h-201.804688zm0 0"/><path d="m480.15625 483.3125h16v16h-16zm0 0"/><path d="m.15625 483.3125h16v16h-16zm0 0"/><path d="m242.492188 293.65625 120-119.996094 11.3125 11.3125-119.996094 120zm0 0"/><path d="m122.496094 173.65625 119.996094-119.996094 11.3125 11.3125-119.996094 120zm0 0"/></g><path d="m496 240h-48.199219c-4.121093-103.921875-87.878906-187.679688-191.800781-191.800781v-48.199219h-16v48.199219c-103.921875 4.121093-187.679688 87.878906-191.800781 191.800781h-48.199219v16h48.199219c4.121093 103.921875 87.878906 187.679688 191.800781 191.800781v48.199219h16v-48.199219c103.921875-4.121093 187.679688-87.878906 191.800781-191.800781h48.199219zm-64.199219 0h-32.199219c-4.066406-77.414062-66.1875-139.535156-143.601562-143.59375v-32.207031c95.105469 4.097656 171.703125 80.695312 175.800781 175.800781zm-80.207031 0c-3.90625-50.960938-44.632812-91.6875-95.59375-95.59375v-32c68.601562 4.019531 123.574219 58.992188 127.59375 127.59375zm-207.1875 16c3.90625 50.960938 44.632812 91.6875 95.59375 95.59375v32c-68.601562-4.019531-123.574219-58.992188-127.59375-127.59375zm95.59375 0v31.191406c-15.648438-3.191406-28-15.542968-31.191406-31.191406zm-31.191406-16c3.191406-15.648438 15.542968-28 31.191406-31.191406v31.191406zm47.191406 16h31.191406c-3.191406 15.648438-15.542968 28-31.191406 31.191406zm0-16v-31.191406c15.648438 3.191406 28 15.542968 31.191406 31.191406zm-16-47.359375c-24.472656 3.527344-43.832031 22.886719-47.359375 47.359375h-32.234375c3.824219-42.144531 37.449219-75.777344 79.59375-79.59375zm-47.359375 63.359375c3.527344 24.472656 22.886719 43.832031 47.359375 47.359375v32.234375c-42.144531-3.824219-75.777344-37.449219-79.59375-79.59375zm63.359375 47.359375c24.472656-3.527344 43.832031-22.886719 47.359375-47.359375h32.234375c-3.824219 42.144531-37.449219 75.777344-79.59375 79.59375zm47.359375-63.359375c-3.527344-24.472656-22.886719-43.832031-47.359375-47.359375v-32.234375c42.144531 3.824219 75.777344 37.449219 79.59375 79.59375zm-63.359375-175.800781v32.152343c-71 3.671876-130.03125 55.570313-141.894531 126.320313l15.78125 2.648437c10.5625-63.007812 62.960937-109.320312 126.121093-112.96875v32.046876c-50.96875 3.914062-91.695312 44.640624-95.601562 95.601562h-80.207031c4.097656-95.105469 80.695312-171.703125 175.800781-175.800781zm-175.800781 191.800781h32.199219c4.066406 77.414062 66.1875 139.535156 143.601562 143.59375v32.199219c-95.105469-4.089844-171.703125-80.6875-175.800781-175.792969zm191.800781 175.800781v-32.152343c71-3.671876 130.03125-55.570313 141.894531-126.320313l-15.78125-2.648437c-10.5625 63.007812-62.960937 109.320312-126.121093 112.96875v-32.046876c50.96875-3.914062 91.695312-44.640624 95.601562-95.601562h80.199219c-4.089844 95.105469-80.6875 171.703125-175.792969 175.800781zm0 0" transform="matrix(0.04032257944345474 0 0 0.04032257944345474 237.5 -4)" id="L1_98"/><g transform="matrix(0.17526880469667763 0.04696313467684293 -0.04696313467684293 0.17526880469667763 -31.819804734407533 -55.11351953412163)" id="L1_99"><path d="m248 240c57.34375 0 104-46.65625 104-104s-46.65625-104-104-104-104 46.65625-104 104 46.65625 104 104 104zm88-104c0 28.425781-13.601562 53.664062-34.574219 69.769531l-15.769531-7.882812c-3.488281-1.742188-5.65625-5.253907-5.65625-9.160157v-10.964843c0-3.433594 1.703125-6.617188 4.558594-8.523438l7.761718-5.167969c7.320313-4.878906 11.679688-13.039062 11.679688-21.832031 0-12.0625-8.167969-22.527343-19.871094-25.453125l-7.578125-1.898437c-3.671875-.917969-6.527343-3.773438-7.445312-7.445313l-1.898438-7.570312c-2.910156-11.703125-13.382812-19.871094-25.445312-19.871094h-5.417969c-4.207031 0-7.945312-2.527344-9.503906-6.441406l-8.167969-20.429688c9.191406-3.257812 19.03125-5.128906 29.328125-5.128906 48.519531 0 88 39.480469 88 88zm-131.878906-76.167969 7.871094 19.664063c4 10.03125 13.558593 16.503906 24.351562 16.503906h5.417969c4.703125 0 8.789062 3.183594 9.925781 7.753906l1.898438 7.566406c2.351562 9.421876 9.671874 16.734376 19.085937 19.09375l7.574219 1.898438c4.570312 1.136719 7.753906 5.214844 7.753906 9.925781 0 3.433594-1.703125 6.617188-4.558594 8.523438l-7.761718 5.167969c-7.320313 4.878906-11.679688 13.039062-11.679688 21.832031v10.964843c0 10 5.558594 19 14.503906 23.464844l6.792969 3.394532c-11.34375 5.34375-23.953125 8.414062-37.296875 8.414062-11.296875 0-22.0625-2.214844-32-6.113281v-13.664063c0-4.496094 2.496094-8.527344 6.511719-10.535156l10.128906-5.0625c9.472656-4.730469 15.359375-14.25 15.359375-24.839844 0-15.320312-12.464844-27.785156-27.777344-27.785156-6.734375 0-12.222656-5.488281-12.222656-12.222656v-1.113282c0-9.183593-4.382812-17.960937-11.734375-23.464843l-19.523437-14.640625c7.28125-10.039063 16.59375-18.488282 27.378906-24.726563zm-35.570313 38.582031 18.113281 13.585938c3.34375 2.503906 5.335938 6.496094 5.335938 10.664062v1.113282c0 15.558594 12.664062 28.222656 28.222656 28.222656 6.488282 0 11.777344 5.289062 11.777344 11.777344 0 4.496094-2.496094 8.527344-6.511719 10.535156l-10.128906 5.0625c-9.472656 4.738281-15.359375 14.257812-15.359375 24.847656v5.441406c-24.046875-15.726562-40-42.847656-40-73.664062 0-13.457031 3.128906-26.167969 8.550781-37.585938zm0 0"/><path d="m371.425781 192c8.214844-17.6875 12.574219-36.929688 12.574219-56.777344 0-74.558594-60.664062-135.222656-135.222656-135.222656h-1.546875c-74.566407 0-135.230469 60.664062-135.230469 135.222656 0 19.847656 4.359375 39.089844 12.566406 56.777344h-124.566406v304h496v-304zm-124.203125-176h1.546875c65.742188 0 119.230469 53.488281 119.230469 119.222656 0 25-7.679688 48.96875-22.207031 69.304688l-91.65625 128.320312c-2.824219 3.953125-9.457031 3.953125-12.273438 0l-91.65625-128.320312c-14.527343-20.335938-22.207031-44.304688-22.207031-69.304688 0-65.734375 53.488281-119.222656 119.222656-119.222656zm51.433594 282.046875 18.96875-26.558594 34.375.414063v80.097656h-16.960938c.570313-2.617188.960938-5.273438.960938-8 0-18.640625-14.070312-35.640625-37.34375-45.953125zm-137.695312 53.953125h-16.960938v-128.640625l53.34375 74.6875c-23.273438 10.3125-37.34375 27.3125-37.34375 45.953125 0 2.726562.390625 5.382812.960938 8zm45.960937-40.542969 21.917969 30.6875c4.40625 6.167969 11.566406 9.855469 19.160156 9.855469s14.753906-3.6875 19.160156-9.855469l21.917969-30.6875c18.914063 7.535157 30.921875 19.910157 30.921875 32.542969 0 21.679688-32.976562 40-72 40s-72-18.320312-72-40c0-12.632812 12.007812-25.007812 30.921875-32.542969zm-142.921875-103.457031v16h16v-16h48v160h40.304688c13.894531 19.054688 43.941406 32 79.695312 32s65.800781-12.945312 79.695312-32h40.304688v-111.902344l-39.039062-.472656 29.855468-41.792969c1.359375-1.902343 2.582032-3.871093 3.832032-5.832031h117.351562v48h-64v112h32v-16h-16v-80h48v80h-16v16h16v48h-64v64h-48v-64h-208v64h-48v-64h-96v-48h64v-128h-16v112h-48v-144zm288 272h-176v-48h176zm-336-48h80v48h-80zm416 48v-48h48v48zm0 0"/></g><g transform="matrix(0.07999999821186066 0 0 0.07999999821186066 242.5 67.50000002000002)" id="L1_100"><path d="m282 401.617188v-112h188l30-40-30-40h-188v-80h116l30-40-30-40h-116v-28.28125l-32-21.335938-32 21.335938v28.28125h-116l-30 40 30 40h116v112h-188l-30 40 30 40h188v112h-85.769531l-16 48h-82.230469v16h432v-16h-82.238281l-16-48h-85.761719v-16h-16v16h-32v-304h32v272zm180-176 18 24-18 24h-180v-48zm-95.097656 256h-233.804688l10.671875-32h212.46875zm-328.902344-176-18-24 18-24h180v48zm196-275.722657 16-10.664062 16 10.664062v19.722657h-32zm-142 59.722657 18-24h280l18 24-18 24h-280zm0 0"/><path d="m482 481.617188h16v16h-16zm0 0"/><path d="m2 481.617188h16v16h-16zm0 0"/></g><g transform="matrix(0.10080645233392715 0 0 0.10080645233392715 62.5 237.5)" id="L1_102"><path d="m120 448h48v16h-48zm0 0"/><path d="m208 144c-52.9375 0-96 43.0625-96 96s43.0625 96 96 96 96-43.0625 96-96-43.0625-96-96-96zm0 176c-44.113281 0-80-35.886719-80-80s35.886719-80 80-80 80 35.886719 80 80-35.886719 80-80 80zm0 0"/><path d="m456 200h-88v-16h-16v16h-22.488281c-7.839844-23.742188-22.414063-44.425781-41.511719-59.761719v-100.238281c0-22.054688-17.945312-40-40-40h-208c-22.054688 0-40 17.945312-40 40v416c0 22.054688 17.945312 40 40 40h208c22.054688 0 40-17.945312 40-40v-116.238281c19.089844-15.335938 33.671875-36.019531 41.511719-59.761719h22.488281v16h16v-16h88c22.054688 0 40-17.945312 40-40s-17.945312-40-40-40zm-416-184h208c13.230469 0 24 10.769531 24 24v8h-256v-8c0-13.230469 10.769531-24 24-24zm208 464h-208c-13.230469 0-24-10.769531-24-24v-24h256v24c0 13.230469-10.769531 24-24 24zm24-64h-256v-352h256v65.320312c-5.128906-2.976562-10.457031-5.640624-16-7.894531v-41.425781h-224v320h224v-41.425781c5.542969-2.253907 10.871094-4.917969 16-7.894531zm-32-52.214844v20.214844h-32v-16c11.0625 0 21.753906-1.558594 32-4.214844zm-48 20.214844h-32v-25.425781c10.097656 4.105469 20.824219 6.914062 32 8.3125zm-48-32v32h-96v-32h16v-16h-16v-192h48v34.167969c-10.167969 18.34375-16 39.40625-16 61.832031 0 38.238281 16.945312 72.527344 43.625 96h-43.625v16zm-96-224v-32h96v33.320312c-12.054688 7-22.839844 15.894532-32 26.304688v-27.625zm112-32h32v17.113281c-11.175781 1.398438-21.902344 4.207031-32 8.3125zm48 0h32v20.214844c-10.246094-2.65625-20.9375-4.214844-32-4.214844zm0 256c-61.761719 0-112-50.238281-112-112s50.238281-112 112-112 112 50.238281 112 112-50.238281 112-112 112zm125.664062-88c1.488282-7.785156 2.335938-15.792969 2.335938-24s-.847656-16.214844-2.335938-24h18.335938v48zm122.335938 0h-88v-48h88c13.230469 0 24 10.769531 24 24s-10.769531 24-24 24zm0 0"/></g><g transform="matrix(0.09710963070392609 0 0 0.09710963070392609 73.91681069135666 62.91681069135666)" id="L1_103"><path d="m448 104c0-12.558594-4.207031-24.121094-11.214844-33.472656l8.871094-8.871094-11.3125-11.3125-8.871094 8.871094c-9.351562-7.007813-20.914062-11.214844-33.472656-11.214844-30.878906 0-56 25.121094-56 56 0 12.558594 4.207031 24.121094 11.214844 33.472656l-8.871094 8.871094 11.3125 11.3125 8.871094-8.871094c9.351562 7.007813 20.914062 11.214844 33.472656 11.214844 30.878906 0 56-25.121094 56-56zm-56-40c22.054688 0 40 17.945312 40 40s-17.945312 40-40 40-40-17.945312-40-40 17.945312-40 40-40zm0 0" fill="#000000"/><path d="m88 384c-30.878906 0-56 25.121094-56 56s25.121094 56 56 56c28.152344 0 51.457031-20.902344 55.359375-48h24.640625v-16h-24.640625c-3.902344-27.097656-27.207031-48-55.359375-48zm0 96c-22.054688 0-40-17.945312-40-40s17.945312-40 40-40 40 17.945312 40 40-17.945312 40-40 40zm0 0" fill="#000000"/><path d="m88 416c-13.230469 0-24 10.769531-24 24s10.769531 24 24 24 24-10.769531 24-24-10.769531-24-24-24zm0 32c-4.40625 0-8-3.59375-8-8s3.59375-8 8-8 8 3.59375 8 8-3.59375 8-8 8zm0 0" fill="#000000"/><path d="m200 432h32v16h-32zm0 0" fill="#000000"/><path d="m264 432h32v16h-32zm0 0" fill="#000000"/><path d="m328 432h32v16h-32zm0 0" fill="#000000"/><path d="m392 432h32v16h-32zm0 0" fill="#000000"/><path d="m472 336h-16v16h16c4.40625 0 8 3.59375 8 8v64c0 4.40625-3.59375 8-8 8h-16v16h16c13.230469 0 24-10.769531 24-24v-64c0-13.230469-10.769531-24-24-24zm0 0" fill="#000000"/><path d="m40 336h-16c-4.40625 0-8-3.59375-8-8v-64c0-4.40625 3.59375-8 8-8h16v-16h-16c-13.230469 0-24 10.769531-24 24v64c0 13.230469 10.769531 24 24 24h16zm0 0" fill="#000000"/><path d="m392 336h32v16h-32zm0 0" fill="#000000"/><path d="m328 336h32v16h-32zm0 0" fill="#000000"/><path d="m264 336h32v16h-32zm0 0" fill="#000000"/><path d="m200 336h32v16h-32zm0 0" fill="#000000"/><path d="m136 336h32v16h-32zm0 0" fill="#000000"/><path d="m72 336h32v16h-32zm0 0" fill="#000000"/><path d="m200 240h32v16h-32zm0 0" fill="#000000"/><path d="m264 240h32v16h-32zm0 0" fill="#000000"/><path d="m328 240h32v16h-32zm0 0" fill="#000000"/><path d="m136 240h32v16h-32zm0 0" fill="#000000"/><path d="m72 240h32v16h-32zm0 0" fill="#000000"/><path d="m411.230469 246.65625 62.738281-79.839844c14.207031-18.089844 22.03125-40.710937 22.03125-63.710937 0-56.847657-46.257812-103.105469-103.105469-103.105469h-1.789062c-56.847657 0-103.105469 46.257812-103.105469 103.105469 0 23 7.824219 45.621093 22.03125 63.695312l62.738281 79.847657c4.671875 5.945312 11.679688 9.351562 19.230469 9.351562s14.558594-3.40625 19.230469-9.34375zm-88.613281-89.734375c-12.007813-15.273437-18.617188-34.386719-18.617188-53.816406 0-48.035157 39.070312-87.105469 87.105469-87.105469h1.789062c48.035157 0 87.105469 39.070312 87.105469 87.105469 0 19.429687-6.609375 38.542969-18.617188 53.816406l-62.734374 79.839844c-3.234376 4.109375-10.074219 4.101562-13.304688 0zm0 0" fill="#000000"/></g></defs><g fi:class="KUsePattern" opacity="0.17"><pattern id="pattern_L1_93" width="350" height="350" patternUnits="userSpaceOnUse"><use xlink:href="#L1_93" x="-350" y="-350"/><use xlink:href="#L1_93" x="0" y="-350"/><use xlink:href="#L1_93" x="350" y="-350"/><use xlink:href="#L1_93" x="-350" y="0"/><use xlink:href="#L1_93" x="0" y="0"/><use xlink:href="#L1_93" x="350" y="0"/><use xlink:href="#L1_93" x="-350" y="350"/><use xlink:href="#L1_93" x="0" y="350"/><use xlink:href="#L1_93" x="350" y="350"/></pattern><rect x="0" y="0" width="100%" height="100%" fill="url(#pattern_L1_93)"/></g><g fi:class="KUsePattern" opacity="0.12"><pattern id="pattern_L1_94" width="350" height="350" patternUnits="userSpaceOnUse"><use xlink:href="#L1_94" x="-350" y="-350"/><use xlink:href="#L1_94" x="0" y="-350"/><use xlink:href="#L1_94" x="350" y="-350"/><use xlink:href="#L1_94" x="-350" y="0"/><use xlink:href="#L1_94" x="0" y="0"/><use xlink:href="#L1_94" x="350" y="0"/><use xlink:href="#L1_94" x="-350" y="350"/><use xlink:href="#L1_94" x="0" y="350"/><use xlink:href="#L1_94" x="350" y="350"/></pattern><rect x="0" y="0" width="100%" height="100%" fill="url(#pattern_L1_94)"/></g><g fi:class="KUsePattern" opacity="0.13"><pattern id="pattern_L1_95" width="350" height="350" patternUnits="userSpaceOnUse"><use xlink:href="#L1_95" x="-350" y="-350"/><use xlink:href="#L1_95" x="0" y="-350"/><use xlink:href="#L1_95" x="350" y="-350"/><use xlink:href="#L1_95" x="-350" y="0"/><use xlink:href="#L1_95" x="0" y="0"/><use xlink:href="#L1_95" x="350" y="0"/><use xlink:href="#L1_95" x="-350" y="350"/><use xlink:href="#L1_95" x="0" y="350"/><use xlink:href="#L1_95" x="350" y="350"/></pattern><rect x="0" y="0" width="100%" height="100%" fill="url(#pattern_L1_95)"/></g><g fi:class="KUsePattern" opacity="0.12"><pattern id="pattern_L1_96" width="350" height="350" patternUnits="userSpaceOnUse"><use xlink:href="#L1_96" x="-350" y="-350"/><use xlink:href="#L1_96" x="0" y="-350"/><use xlink:href="#L1_96" x="350" y="-350"/><use xlink:href="#L1_96" x="-350" y="0"/><use xlink:href="#L1_96" x="0" y="0"/><use xlink:href="#L1_96" x="350" y="0"/><use xlink:href="#L1_96" x="-350" y="350"/><use xlink:href="#L1_96" x="0" y="350"/><use xlink:href="#L1_96" x="350" y="350"/></pattern><rect x="0" y="0" width="100%" height="100%" fill="url(#pattern_L1_96)"/></g><g fi:class="KUsePattern" opacity="0.09"><pattern id="pattern_L1_97" width="350" height="350" patternUnits="userSpaceOnUse"><use xlink:href="#L1_97" x="-350" y="-350"/><use xlink:href="#L1_97" x="0" y="-350"/><use xlink:href="#L1_97" x="350" y="-350"/><use xlink:href="#L1_97" x="-350" y="0"/><use xlink:href="#L1_97" x="0" y="0"/><use xlink:href="#L1_97" x="350" y="0"/><use xlink:href="#L1_97" x="-350" y="350"/><use xlink:href="#L1_97" x="0" y="350"/><use xlink:href="#L1_97" x="350" y="350"/></pattern><rect x="0" y="0" width="100%" height="100%" fill="url(#pattern_L1_97)"/></g><g fi:class="KUsePattern" opacity="0.08"><pattern id="pattern_L1_98" width="350" height="350" patternUnits="userSpaceOnUse"><use xlink:href="#L1_98" x="-350" y="-350"/><use xlink:href="#L1_98" x="0" y="-350"/><use xlink:href="#L1_98" x="350" y="-350"/><use xlink:href="#L1_98" x="-350" y="0"/><use xlink:href="#L1_98" x="0" y="0"/><use xlink:href="#L1_98" x="350" y="0"/><use xlink:href="#L1_98" x="-350" y="350"/><use xlink:href="#L1_98" x="0" y="350"/><use xlink:href="#L1_98" x="350" y="350"/></pattern><rect x="0" y="0" width="100%" height="100%" fill="url(#pattern_L1_98)"/></g><g fi:class="KUsePattern" opacity="0.1"><pattern id="pattern_L1_99" width="350" height="350" patternUnits="userSpaceOnUse"><use xlink:href="#L1_99" x="-350" y="-350"/><use xlink:href="#L1_99" x="0" y="-350"/><use xlink:href="#L1_99" x="350" y="-350"/><use xlink:href="#L1_99" x="-350" y="0"/><use xlink:href="#L1_99" x="0" y="0"/><use xlink:href="#L1_99" x="350" y="0"/><use xlink:href="#L1_99" x="-350" y="350"/><use xlink:href="#L1_99" x="0" y="350"/><use xlink:href="#L1_99" x="350" y="350"/></pattern><rect x="0" y="0" width="100%" height="100%" fill="url(#pattern_L1_99)"/></g><g fi:class="KUsePattern" opacity="0.14"><pattern id="pattern_L1_100" width="350" height="350" patternUnits="userSpaceOnUse"><use xlink:href="#L1_100" x="-350" y="-350"/><use xlink:href="#L1_100" x="0" y="-350"/><use xlink:href="#L1_100" x="350" y="-350"/><use xlink:href="#L1_100" x="-350" y="0"/><use xlink:href="#L1_100" x="0" y="0"/><use xlink:href="#L1_100" x="350" y="0"/><use xlink:href="#L1_100" x="-350" y="350"/><use xlink:href="#L1_100" x="0" y="350"/><use xlink:href="#L1_100" x="350" y="350"/></pattern><rect x="0" y="0" width="100%" height="100%" fill="url(#pattern_L1_100)"/></g><g fi:class="KUsePattern" opacity="0.09"><pattern id="pattern_L1_102" width="350" height="350" patternUnits="userSpaceOnUse"><use xlink:href="#L1_102" x="-350" y="-350"/><use xlink:href="#L1_102" x="0" y="-350"/><use xlink:href="#L1_102" x="350" y="-350"/><use xlink:href="#L1_102" x="-350" y="0"/><use xlink:href="#L1_102" x="0" y="0"/><use xlink:href="#L1_102" x="350" y="0"/><use xlink:href="#L1_102" x="-350" y="350"/><use xlink:href="#L1_102" x="0" y="350"/><use xlink:href="#L1_102" x="350" y="350"/></pattern><rect x="0" y="0" width="100%" height="100%" fill="url(#pattern_L1_102)"/></g><g fi:class="KUsePattern" opacity="0.15"><pattern id="pattern_L1_103" width="350" height="350" patternUnits="userSpaceOnUse"><use xlink:href="#L1_103" x="-350" y="-350"/><use xlink:href="#L1_103" x="0" y="-350"/><use xlink:href="#L1_103" x="350" y="-350"/><use xlink:href="#L1_103" x="-350" y="0"/><use xlink:href="#L1_103" x="0" y="0"/><use xlink:href="#L1_103" x="350" y="0"/><use xlink:href="#L1_103" x="-350" y="350"/><use xlink:href="#L1_103" x="0" y="350"/><use xlink:href="#L1_103" x="350" y="350"/></pattern><rect x="0" y="0" width="100%" height="100%" fill="url(#pattern_L1_103)"/></g></svg>
