<svg xmlns="http://www.w3.org/2000/svg" width="48" height="48" viewBox="0 0 48 48"><g><rect class="nc-transparent-rect" x="0" y="0" width="48" height="48" rx="0" ry="0" fill="none" stroke="none"></rect><g class="nc-icon-wrapper"><path d="M21,46a1,1,0,0,1-.707-.293C19.627,45.042,4,29.285,4,18A16.836,16.836,0,0,1,21,1,16.836,16.836,0,0,1,38,18c0,11.285-15.627,27.042-16.293,27.707A1,1,0,0,1,21,46Z" fill="#5a7a84"></path> <circle cx="21" cy="18" r="6" fill="#fff"></circle> <path d="M41,33a4.079,4.079,0,1,0-3.819-2.874L33.8,32.153a4,4,0,1,0,0,5.694l3.378,2.027A3.963,3.963,0,1,0,38.2,38.152l-3.379-2.027a3.587,3.587,0,0,0,0-2.25L38.2,31.848A3.983,3.983,0,0,0,41,33Z" fill="#ea9860"></path></g></g></svg>