<svg xmlns="http://www.w3.org/2000/svg" width="48" height="48" viewBox="0 0 48 48"><g><rect class="nc-transparent-rect" x="0" y="0" width="48" height="48" rx="0" ry="0" fill="none" stroke="none"></rect><g class="nc-icon-wrapper"><path d="M20,14c0-1.657,3-14,3-14s3,12.343,3,14a3,3,0,0,1-6,0Z" fill="#4da34d"></path> <path d="M23.805,14.334A2.75,2.75,0,0,0,23,16a2.75,2.75,0,0,0-.8-1.666c-1.07-1.07-11.618-7.757-11.618-7.757S17.264,17.125,18.334,18.2A3.489,3.489,0,0,0,21,19h4a3.489,3.489,0,0,0,2.666-.8c1.07-1.07,7.757-11.618,7.757-11.618S24.875,13.264,23.805,14.334Z" fill="#9edb9e"></path> <rect x="11" y="18" width="24" height="28" rx="8" ry="8" fill="#a67c52"></rect> <path d="M27,47H19a9.01,9.01,0,0,1-9-9V26a9.01,9.01,0,0,1,9-9h8a9.01,9.01,0,0,1,9,9V38A9.01,9.01,0,0,1,27,47ZM19,19a7.009,7.009,0,0,0-7,7V38a7.009,7.009,0,0,0,7,7h8a7.009,7.009,0,0,0,7-7V26a7.009,7.009,0,0,0-7-7Z" fill="#87613e"></path> <rect x="19.646" y="22.004" width="2" height="27.283" transform="translate(-19.158 25.039) rotate(-45)" fill="#87613e"></rect> <rect x="24.355" y="14.714" width="2" height="27.282" transform="translate(-12.623 26.233) rotate(-45)" fill="#87613e"></rect> <rect x="11.714" y="34.646" width="27.282" height="2" transform="translate(-17.779 28.369) rotate(-45)" fill="#87613e"></rect> <rect x="7.004" y="27.354" width="27.283" height="2" transform="translate(-14.002 22.904) rotate(-45)" fill="#87613e"></rect></g></g></svg>