<svg xmlns="http://www.w3.org/2000/svg" width="32" height="32" viewBox="0 0 32 32"><g><rect class="nc-transparent-rect" x="0" y="0" width="32" height="32" rx="0" ry="0" fill="none" stroke="none"></rect><g class="nc-icon-wrapper" fill="#2185d0"><path fill="#2185d0" d="M16.003,8.517c-0.15,0.583-0.581,2.026-1.292,4.327h2.604c-0.67-2.156-1.047-3.375-1.131-3.657 S16.04,8.681,16.003,8.517z"></path> <path fill="#2185d0" d="M16,0C10.102,0,4,4.506,4,12.048c0,7.147,10.828,18.188,11.289,18.655C15.477,30.893,15.733,31,16,31 s0.523-0.107,0.711-0.297C17.172,30.236,28,19.195,28,12.048C28,4.506,21.898,0,16,0z M18.546,17l-0.725-2.379h-3.644L13.454,17 H11.17l3.527-10.035h2.591L20.83,17H18.546z"></path></g></g></svg>