<?xml version="1.0" encoding="iso-8859-1"?>
<!-- Generator: Adobe Illustrator 19.0.0, SVG Export Plug-In . SVG Version: 6.00 Build 0)  -->
<svg version="1.1" id="Capa_1" xmlns="http://www.w3.org/2000/svg" xmlns:xlink="http://www.w3.org/1999/xlink" x="0px" y="0px"
	 viewBox="0 0 512 512" style="enable-background:new 0 0 512 512;" xml:space="preserve">
<rect x="382" y="181.277" style="fill:#0C4EAD;" width="30" height="160.33"/>
<path style="fill:#0E61C4;" d="M442,446.612h-90v-120h90V446.612z"/>
<path style="fill:#7E88FD;" d="M321.935,435.212l-26.271-280.225l-29.869,2.8l1.441,15.376l-44.658,44.658l7.166-76.431l-29.869-2.8
	l-27.809,296.622l14.935,1.4l9.447,11.651l89.756-72.775l5.862,62.524L321.935,435.212z M217.535,271.612h34.395l-37.827,36.607
	L217.535,271.612z M282.09,331.612h-49.02l44.943-43.493L282.09,331.612z M209.097,361.612h46.585l-50.418,40.88L209.097,361.612z
	 M273.653,241.613h-32.44l29.659-29.659L273.653,241.613z"/>
<polygon style="fill:#0C4EAD;" points="121.923,83.625 104.118,141.41 458.403,203.88 468.822,144.792 "/>
<polygon style="fill:#6E76E3;" points="295.663,154.988 265.794,157.788 267.235,173.165 255.683,184.716 255.683,227.143 
	270.872,211.953 273.653,241.613 255.683,241.613 255.683,309.729 278.013,288.12 282.09,331.612 255.683,331.612 255.683,400.236 
	286.204,375.488 292.065,438.013 321.935,435.212 "/>
<polygon style="fill:#073E89;" points="255.683,107.211 255.683,168.135 458.403,203.88 468.822,144.792 "/>
<path style="fill:#0E61C4;" d="M99.716,206.637l-85.169-15.018L24.15,0.383L156.1,23.649L99.716,206.637z"/>
<path style="fill:#FDE882;" d="M482,511.612H30v-90h452V511.612z"/>
<g>
	<path style="fill:#FDDA40;" d="M482,511.612H256v-90h226V511.612z"/>
	<rect y="481.617" style="fill:#FDDA40;" width="512" height="30"/>
</g>
<rect x="256" y="481.617" style="fill:#FDA916;" width="256" height="30"/>
<g>
</g>
<g>
</g>
<g>
</g>
<g>
</g>
<g>
</g>
<g>
</g>
<g>
</g>
<g>
</g>
<g>
</g>
<g>
</g>
<g>
</g>
<g>
</g>
<g>
</g>
<g>
</g>
<g>
</g>
</svg>
