<svg xmlns="http://www.w3.org/2000/svg" viewBox="0 0 96.49 86.67"><defs><style>.cls-1{fill:#231f20;}.cls-2{fill:#ffb342;}.cls-3{fill:#00a5d9;}</style></defs><title>Asset 2</title><g id="Layer_2" data-name="Layer 2"><g id="Слой_1" data-name="Слой 1"><rect class="cls-1" y="84.67" width="96.49" height="2"/><path class="cls-1" d="M11.62,33.77a1,1,0,0,1-.92-.61A23.88,23.88,0,0,1,32.7,0a1,1,0,0,1,0,2A21.88,21.88,0,0,0,12.54,32.38a1,1,0,0,1-.92,1.39Z"/><polygon class="cls-1" points="12.17 33.61 11.07 31.94 27.88 20.95 31.71 0.81 33.68 1.19 29.69 22.16 12.17 33.61"/><path class="cls-1" d="M28.78,22.56h-.12L10.15,20.36l.24-2,16.53,2L18.5,5.79l1.73-1,9.42,16.27a1,1,0,0,1-.87,1.5Z"/><path class="cls-1" d="M63.54,84,48.41,36.63,33.28,84l-1.91-.61L47.46,33a1,1,0,0,1,1.91,0L65.45,83.42Z"/><rect class="cls-1" x="48.7" y="44.39" width="2" height="14.08" transform="translate(-20.92 62.74) rotate(-55.09)"/><path class="cls-1" d="M63,81.4,37.31,67.5a1,1,0,0,1,.07-1.8l18.43-8.09.8,1.83L40.06,66.72,63.95,79.64Z"/><rect class="cls-2" x="22.68" y="37.29" width="66.32" height="6.13" transform="translate(32.14 -24.34) rotate(34.02)"/><path class="cls-1" d="M81.88,62.84,25.26,24.61l4.55-6.74L86.42,56.1ZM28,24.07l53.3,36,2.31-3.42-53.31-36Z"/><path class="cls-1" d="M85.34,79.82a7.95,7.95,0,1,1,7.95-7.95A8,8,0,0,1,85.34,79.82Zm0-13.9a5.95,5.95,0,1,0,5.95,5.95A6,6,0,0,0,85.34,65.92Z"/><rect class="cls-3" x="62.36" y="73.07" width="25.33" height="11.82"/><rect class="cls-2" x="24.73" y="82.02" width="63.89" height="2.87"/><circle class="cls-3" cx="72.7" cy="70.69" r="4.73"/><rect class="cls-1" x="10.62" y="32.77" width="2" height="53.62"/><rect class="cls-1" x="86.93" y="56.61" width="2" height="13.81" transform="translate(-20.48 59.75) rotate(-33.85)"/></g></g></svg>