<?xml version="1.0" encoding="UTF-8" standalone="no"?><!DOCTYPE svg PUBLIC "-//W3C//DTD SVG 1.1//EN" "http://www.w3.org/Graphics/SVG/1.1/DTD/svg11.dtd"><svg width="100%" height="100%" viewBox="0 0 387 80" version="1.1" xmlns="http://www.w3.org/2000/svg" xmlns:xlink="http://www.w3.org/1999/xlink" xml:space="preserve" xmlns:serif="http://www.serif.com/" style="fill-rule:evenodd;clip-rule:evenodd;stroke-linejoin:round;stroke-miterlimit:1.41421;"><g><g><g><g><path d="M258.636,50.77c-2.15,0 -3.759,-0.916 -4.986,-1.991l0.918,-6.749l1.075,-10.048c1.533,-2.299 3.452,-4.297 5.907,-4.297c4.679,0 6.749,2.536 6.749,8.057c0,9.818 -3.604,15.028 -9.663,15.028m-31.728,-4.831c-1.535,2.455 -3.53,4.527 -6.061,4.527c-3.988,0 -5.981,-2.762 -5.981,-8.053c0,-9.816 3.299,-15.032 8.895,-15.032c1.998,0 3.604,0.842 4.833,1.839l-1.686,16.719Zm-74.449,-12.499c-0.307,1.686 -0.844,9.047 -1.227,12.653c-1.535,2.381 -3.526,4.451 -5.981,4.451c-3.53,0 -5.217,-2.762 -5.217,-8.057c0,-9.816 2.993,-15.028 8.131,-15.028c2.144,0 3.757,0.916 5.062,2.07c-0.383,1.993 -0.615,2.914 -0.768,3.911m126.851,9.739c0,4.669 1.34,-12.393 0.419,-5.904c0.041,-0.731 0.074,-1.467 0.074,-2.223c0,-10.818 -5.601,-16.647 -13.959,-16.647c-3.835,0 -7.056,1.765 -9.28,4.375l2.072,-19.098c0,-1.228 -1.306,-2.381 -4.375,-2.381l-2.143,0c-2.993,0 -4.68,0.844 -4.832,2.457l-4.796,45.302c-0.55,0.942 -1.409,1.657 -2.347,1.7c-1.521,-0.043 -2.192,-0.798 -2.192,-2.519c0,-0.768 4.679,-44.559 4.679,-44.559c0,-1.228 -1.306,-2.381 -4.372,-2.381l-2.146,0c-2.993,0 -4.68,0.844 -4.832,2.457l-1.917,17.794c-1.765,-1.46 -4.605,-3.147 -8.21,-3.147c-10.507,0 -17.79,9.97 -17.79,24.698c0,2.753 0.343,5.176 0.987,7.272c-0.413,0.12 -1.103,0.395 -1.945,0.395c-1.613,0 -2.303,-0.764 -2.303,-2.529c0,-1.301 1.918,-18.405 1.918,-20.092c0,-6.675 -3.3,-9.744 -10.123,-9.744c-4.679,0 -9.511,2.914 -11.968,5.983c-0.074,-2.605 -0.611,-5.138 -2.529,-5.138c-4.984,0 -8.895,1.075 -8.895,2.761c0,1.154 0.153,2.455 0.153,4.295c0,2.603 -0.005,2.256 -2.252,24.122c-0.419,0.137 -1.027,0.342 -1.752,0.342c-1.609,0 -2.299,-0.69 -2.299,-2.45c0,-1.306 2.836,-27.153 2.836,-27.458c0,-1.227 -1.382,-1.919 -4.448,-1.919l-0.923,0c-3.909,0.08 -4.142,0.844 -4.984,3.606c-1.609,-1.534 -4.906,-4.063 -9.28,-4.063c-9.879,0 -16.774,9.646 -17.005,23.961c-1.458,-4.284 -5.174,-6.102 -8.313,-7.553c-2.533,-1.224 -4.679,-2.223 -4.679,-4.216c0,-1.918 1.303,-3.371 4.141,-3.371c1.842,0 3.681,0.611 4.987,1.068c0.689,0.311 1.227,0.464 1.532,0.464c1.534,0 4.063,-4.294 4.063,-5.755c0,-3.682 -7.056,-4.679 -11.119,-4.679c-8.741,0 -15.263,4.679 -15.263,12.963c0,7.056 4.757,9.358 8.666,11.274c2.688,1.305 4.986,2.38 4.986,4.757c0,1.992 -1.686,3.371 -5.06,3.371c-3.071,0 -5.6,-1.227 -6.982,-1.917c-0.69,-0.379 -1.227,-0.69 -1.454,-0.69c-0.463,0 -1.69,0.231 -1.69,6.904c0,4.141 8.514,4.679 11.428,4.679c7.883,0 14.167,-3.949 15.237,-11.067c1.433,7.276 5.865,11.145 11.924,11.145c4.448,0 8.283,-2.533 10.429,-5.907c1.075,4.142 4.142,5.829 8.821,5.829c1.956,0 4.385,-0.62 5.746,-2.047c0.468,0.889 1.773,1.588 4.163,1.588l2.148,0c2.988,0 4.679,-0.845 4.834,-2.455c0,0 1.606,-14.267 2.45,-24.389c1.38,-2.148 3.761,-4.679 6.749,-4.679c2.993,0 4.142,1.382 4.142,3.837c0,1.07 -1.765,16.562 -1.765,18.405c0,6.904 3.299,9.74 9.284,9.74c2.684,0 6.288,-1.149 6.745,-3.99c0.237,-1.373 0.372,-2.501 0.447,-3.303c2.184,4.774 6.226,7.293 11.405,7.293c4.526,0 8.283,-2.455 10.429,-5.907c1.075,4.142 4.067,5.907 8.821,5.907c1.396,0 3.032,-0.32 4.351,-1.018c1.323,0.698 2.961,1.018 4.353,1.018c3.752,0 6.387,-1.122 7.867,-3.617c1.769,1.579 4.814,3.617 8.869,3.617c9.484,0 16.436,-7.467 18.144,-19.007c-0.047,0.798 -0.077,1.608 -0.077,2.44Z" style="fill:#2e3337;fill-rule:nonzero;"/></g></g><path d="M83.821,54.504c0,1.483 -1.134,3.128 -2.52,3.656l-20.991,7.996c-1.386,0.527 -2.521,-0.254 -2.521,-1.737l0,-16.633c0,-1.483 1.142,-3.108 2.536,-3.611l20.96,-7.567c1.395,-0.503 2.536,0.298 2.536,1.782l0,16.114Zm-39.863,9.915c0,1.483 -1.133,2.264 -2.519,1.737l-20.992,-7.996c-1.387,-0.528 -2.521,-2.173 -2.521,-3.656l0,-16.114c0,-1.484 1.142,-2.285 2.537,-1.782l20.96,7.567c1.394,0.503 2.535,2.128 2.535,3.611l0,16.633Zm50.062,-39.953c0,-1.483 -1.141,-2.282 -2.535,-1.775l-38.077,13.86c-1.394,0.507 -3.674,0.507 -5.068,0l-38.078,-13.86c-1.394,-0.507 -2.534,0.292 -2.534,1.775l0,35.49c0,1.483 1.135,3.127 2.521,3.653l34.821,13.22c1.386,0.526 3.26,1.237 4.163,1.58c0.902,0.344 2.38,0.344 3.283,0c0.902,-0.343 2.775,-1.054 4.162,-1.58l34.821,-13.22c1.387,-0.526 2.521,-2.17 2.521,-3.653l0,-35.49Z" style="fill:#2e3337;fill-rule:nonzero;"/></g><path d="M68.337,20.897c-0.496,0 -0.898,-0.401 -0.898,-0.899c0,-0.496 0.402,-0.898 0.898,-0.898c0.497,0 0.9,0.402 0.9,0.898c0,0.498 -0.403,0.899 -0.9,0.899m-8.164,-0.256c-0.497,0 -0.898,-0.402 -0.898,-0.898c0,-0.496 0.401,-0.899 0.898,-0.899c0.497,0 0.899,0.403 0.899,0.899c0,0.496 -0.402,0.898 -0.899,0.898m-7.466,-4.293c-0.496,0 -0.898,-0.402 -0.898,-0.899c0,-0.496 0.402,-0.899 0.898,-0.899c0.497,0 0.899,0.403 0.899,0.899c0,0.497 -0.402,0.899 -0.899,0.899m-1.206,8.97c-0.496,0 -0.898,-0.402 -0.898,-0.899c0,-0.496 0.402,-0.899 0.898,-0.899c0.496,0 0.9,0.403 0.9,0.899c0,0.497 -0.404,0.899 -0.9,0.899m-3.905,-16.737c-0.497,0 -0.898,-0.402 -0.898,-0.899c0,-0.496 0.401,-0.899 0.898,-0.899c0.497,0 0.899,0.403 0.899,0.899c0,0.497 -0.402,0.899 -0.899,0.899m-4.785,10.263c-0.496,0 -0.898,-0.402 -0.898,-0.899c0,-0.496 0.402,-0.898 0.898,-0.898c0.496,0 0.9,0.402 0.9,0.898c0,0.497 -0.404,0.899 -0.9,0.899m-5.325,-7.045c-0.496,0 -0.898,-0.402 -0.898,-0.898c0,-0.496 0.402,-0.899 0.898,-0.899c0.496,0 0.9,0.403 0.9,0.899c0,0.496 -0.404,0.898 -0.9,0.898m-5.366,8.842c-0.496,0 -0.898,-0.402 -0.898,-0.898c0,-0.496 0.402,-0.899 0.898,-0.899c0.497,0 0.899,0.403 0.899,0.899c0,0.496 -0.402,0.898 -0.899,0.898m46.505,-0.071c0,0 -9.074,-9.504 -21.025,-11.3c0,0 0.3,0.906 1.538,2.186c0.99,1.026 2.324,1.914 4.762,3.524c0,0 -5.568,-2.288 -7.524,-5.71c-1.988,-3.474 -4.013,-7.969 -6.405,-7.969c-16.792,0 -28.978,19.011 -28.978,19.011c-0.642,1.002 -0.247,2.139 0.879,2.528l26.399,9.099c1.125,0.388 2.965,0.382 4.087,-0.013l25.721,-9.071c1.122,-0.396 1.367,-1.425 0.546,-2.285" style="fill:#2e3337;fill-rule:nonzero;"/><g><path d="M317.966,50.579c0.258,0 0.426,0.051 0.503,0.154c0.077,0.104 0.116,0.336 0.116,0.697c0,0.98 -0.181,2.527 -0.542,4.642c-0.206,1.29 -1.006,2.283 -2.398,2.979c-1.393,0.697 -2.863,1.045 -4.411,1.045c-4.9,0 -7.866,-1.96 -8.898,-5.881c-1.135,1.754 -2.631,3.186 -4.488,4.295c-1.857,1.109 -3.869,1.663 -6.035,1.663c-3.817,0 -6.861,-1.457 -9.131,-4.371c-2.269,-2.915 -3.404,-7.055 -3.404,-12.419c0,-4.901 0.722,-9.234 2.166,-13c1.445,-3.765 3.47,-6.693 6.074,-8.782c2.605,-2.089 5.584,-3.133 8.937,-3.133c1.961,0 3.727,0.412 5.301,1.238c1.573,0.825 2.927,1.779 4.062,2.863c0.309,-1.084 0.593,-1.845 0.851,-2.283c0.258,-0.439 0.696,-0.774 1.315,-1.006c0.619,-0.232 1.574,-0.348 2.863,-0.348l0.929,0c2.992,0 4.488,0.645 4.488,1.934l-0.697,6.809c-1.444,13.412 -2.166,20.376 -2.166,20.892c0,0.877 0.18,1.509 0.541,1.896c0.362,0.386 0.955,0.58 1.78,0.58c0.464,0 0.916,-0.077 1.354,-0.232c0.439,-0.155 0.735,-0.232 0.89,-0.232Zm-14.779,-14.934c0.206,-1.909 0.542,-3.92 1.006,-6.035c-1.599,-1.393 -3.301,-2.089 -5.107,-2.089c-2.631,0 -4.655,1.302 -6.074,3.907c-1.418,2.605 -2.128,6.358 -2.128,11.258c0,5.417 1.754,8.125 5.262,8.125c2.115,0 4.127,-1.496 6.035,-4.488l1.006,-10.678Zm-9.362,-20.891c-1.599,0 -2.734,-0.207 -3.405,-0.619c-0.67,-0.413 -1.006,-1.032 -1.006,-1.858l0.542,-4.642c0.155,-1.651 1.779,-2.476 4.875,-2.476c1.599,0 2.733,0.206 3.404,0.619c0.671,0.413 1.006,1.032 1.006,1.857l-0.542,4.642c-0.258,1.651 -1.882,2.477 -4.874,2.477Zm13.927,0c-1.599,0 -2.734,-0.207 -3.404,-0.619c-0.671,-0.413 -1.006,-1.032 -1.006,-1.858l0.542,-4.642c0.154,-1.651 1.779,-2.476 4.874,-2.476c1.599,0 2.734,0.206 3.405,0.619c0.67,0.413 1.006,1.032 1.006,1.857l-0.542,4.642c-0.258,1.651 -1.883,2.477 -4.875,2.477Z" style="fill:#2e3337;fill-rule:nonzero;"/><path d="M353.095,19.938c0,0.361 -0.31,0.902 -0.929,1.625l-12.303,15.32l10.524,19.963c0.257,0.516 0.386,0.98 0.386,1.393c0,0.464 -0.335,0.812 -1.005,1.044c-0.671,0.233 -1.832,0.349 -3.482,0.349l-3.25,0c-2.528,0 -4.024,-0.49 -4.488,-1.471l-8.898,-17.796l-0.31,0.077l-1.779,16.714c-0.155,1.65 -1.78,2.476 -4.875,2.476l-2.167,0c-1.599,0 -2.734,-0.207 -3.404,-0.619c-0.671,-0.413 -1.006,-1.032 -1.006,-1.857l5.648,-53.545c0.155,-1.65 1.78,-2.476 4.875,-2.476l2.167,0c1.599,0 2.734,0.207 3.404,0.619c0.671,0.413 1.006,1.032 1.006,1.857l-3.25,30.641l0.31,0.078l10.832,-14.005c0.465,-0.619 1.071,-1.019 1.819,-1.2c0.748,-0.18 1.767,-0.271 3.056,-0.271l2.863,0c1.393,0 2.45,0.104 3.172,0.31c0.723,0.206 1.084,0.464 1.084,0.774Z" style="fill:#2e3337;fill-rule:nonzero;"/><path d="M361.916,60.096c-2.322,0 -4.759,-0.335 -7.312,-1.006c-2.554,-0.671 -3.831,-1.909 -3.831,-3.714c0,-4.643 0.568,-6.964 1.703,-6.964c0.154,0 0.709,0.245 1.663,0.735c0.955,0.49 1.999,0.929 3.134,1.316c1.135,0.386 2.373,0.58 3.714,0.58c1.702,0 2.979,-0.31 3.83,-0.929c0.851,-0.619 1.277,-1.521 1.277,-2.708c0,-1.083 -0.413,-1.908 -1.238,-2.476c-0.825,-0.567 -1.793,-1.057 -2.902,-1.47c-1.109,-0.413 -1.87,-0.696 -2.282,-0.851c-2.27,-0.929 -4.063,-2.115 -5.378,-3.559c-1.315,-1.445 -1.973,-3.637 -1.973,-6.577c0,-4.488 1.419,-7.957 4.256,-10.407c2.837,-2.451 6.525,-3.676 11.064,-3.676c2.786,0 5.365,0.374 7.738,1.122c2.373,0.748 3.559,1.947 3.559,3.598c0,0.516 -0.245,1.238 -0.735,2.167c-0.49,0.928 -1.057,1.766 -1.702,2.514c-0.645,0.748 -1.199,1.122 -1.664,1.122c-0.206,0 -0.877,-0.258 -2.011,-0.773c-1.135,-0.516 -2.58,-0.774 -4.333,-0.774c-2.941,0 -4.411,0.954 -4.411,2.863c0,1.186 0.4,2.076 1.199,2.669c0.8,0.593 1.741,1.109 2.825,1.548c1.083,0.438 1.857,0.761 2.321,0.967c2.27,0.98 4.075,2.179 5.416,3.598c1.341,1.418 2.012,3.469 2.012,6.151c0,4.643 -1.47,8.292 -4.41,10.949c-2.941,2.657 -6.784,3.985 -11.529,3.985Z" style="fill:#2e3337;fill-rule:nonzero;"/></g></g></svg>