<svg xmlns="http://www.w3.org/2000/svg" width="48" height="48" viewBox="0 0 48 48"><g><rect class="nc-transparent-rect" x="0" y="0" width="48" height="48" rx="0" ry="0" fill="none" stroke="none"></rect><g class="nc-icon-wrapper"><path fill="#E6E6E6" d="M24,47c0,0-11-1.91667-11-9V25c0-0.55228,0.44771-1,1-1h20c0.55228,0,1,0.44772,1,1v13C35,45,24,47,24,47z"></path> <path fill="#A67C52" d="M29,1H19c-0.55225,0-1,0.44775-1,1v1c0,2.96722,2.16687,5.43134,5,5.90967V31c0,0.55225,0.44775,1,1,1 s1-0.44775,1-1V8.90967C27.83313,8.43134,30,5.96722,30,3V2C30,1.44775,29.55225,1,29,1z M24,7c-2.20557,0-4-1.79443-4-4h8 C28,5.20557,26.20557,7,24,7z"></path></g></g></svg>