<svg xmlns="http://www.w3.org/2000/svg" width="48" height="48" viewBox="0 0 48 48"><g><rect class="nc-transparent-rect" x="0" y="0" width="48" height="48" rx="0" ry="0" fill="none" stroke="none"></rect><g class="nc-icon-wrapper"><path d="M20,46a1,1,0,0,1-.707-.293C18.627,45.042,3,29.285,3,18A16.836,16.836,0,0,1,20,1,16.836,16.836,0,0,1,37,18c0,11.285-15.627,27.042-16.293,27.707A1,1,0,0,1,20,46Z" fill="#5a7a84"></path> <circle cx="20" cy="18" r="6" fill="#fff"></circle> <path d="M35,26A10,10,0,1,0,45,36,10.011,10.011,0,0,0,35,26Z" fill="#8680d8"></path> <path d="M39.185,31.709A5.988,5.988,0,0,0,29.09,35h2.052a3.98,3.98,0,0,1,6.652-1.854L36,35h5V29.834Z" fill="#fff"></path> <path d="M38.858,37A4,4,0,0,1,35,40a4.071,4.071,0,0,1-2.794-1.146L34,37H29v5.166l1.814-1.874A6.088,6.088,0,0,0,35,42a6.006,6.006,0,0,0,5.91-5Z" fill="#fff"></path></g></g></svg>