<?xml version="1.0" standalone="no"?>
<!DOCTYPE svg PUBLIC "-//W3C//DTD SVG 20010904//EN"
 "http://www.w3.org/TR/2001/REC-SVG-20010904/DTD/svg10.dtd">
<svg version="1.0" xmlns="http://www.w3.org/2000/svg"
 width="1040.000000pt" height="1040.000000pt" viewBox="0 0 1040.000000 1040.000000"
 preserveAspectRatio="xMidYMid meet">
<metadata>
Created by potrace 1.11, written by Peter Selinger 2001-2013
</metadata>
<g transform="translate(0.000000,1040.000000) scale(0.100000,-0.100000)"
fill="#000000" stroke="none">
<path d="M4765 10383 c18 -46 58 -182 69 -235 21 -102 35 -182 41 -233 9 -74
10 -368 2 -450 -12 -107 -75 -388 -95 -420 -3 -5 -8 -18 -9 -28 -2 -9 -14 -43
-26 -75 -26 -61 -38 -94 -39 -102 0 -3 -9 -17 -19 -32 -10 -14 -19 -31 -19
-37 0 -12 -80 -165 -117 -223 -12 -21 -23 -40 -23 -42 0 -12 -183 -276 -237
-343 -10 -11 -29 -36 -43 -54 -23 -31 -123 -151 -145 -175 -5 -6 -41 -46 -80
-89 -128 -143 -398 -408 -589 -580 -37 -33 -79 -71 -94 -85 -15 -14 -59 -52
-97 -85 -39 -33 -72 -62 -75 -65 -3 -3 -23 -20 -45 -38 -22 -19 -60 -51 -85
-72 -25 -21 -79 -67 -120 -102 -41 -35 -76 -66 -78 -70 -2 -5 -8 -8 -12 -8 -5
0 -22 -12 -38 -27 -34 -33 -116 -102 -146 -123 -12 -8 -25 -19 -31 -26 -5 -6
-39 -35 -75 -64 -36 -29 -67 -56 -70 -60 -3 -3 -15 -13 -27 -21 -27 -19 -116
-94 -155 -131 -16 -16 -31 -28 -33 -28 -2 0 -17 -12 -32 -26 -15 -14 -45 -40
-67 -58 -21 -17 -52 -44 -70 -61 -17 -16 -45 -40 -61 -53 -17 -13 -65 -56
-109 -95 -43 -40 -93 -85 -110 -100 -162 -148 -428 -426 -508 -532 -12 -16
-25 -32 -28 -35 -3 -3 -25 -32 -50 -65 -25 -33 -48 -61 -52 -63 -5 -2 -8 -8
-8 -14 0 -6 -13 -27 -30 -48 -16 -21 -30 -40 -30 -43 0 -3 -17 -34 -38 -68
-84 -140 -176 -373 -176 -446 0 -13 -2 -23 -5 -23 -22 0 -20 -466 3 -645 9
-70 19 -152 21 -180 2 -16 8 -55 14 -85 6 -30 13 -68 16 -85 6 -37 13 -72 20
-105 4 -14 8 -36 11 -50 6 -27 8 -33 17 -70 4 -14 9 -36 12 -50 2 -14 14 -56
25 -95 12 -38 23 -77 25 -85 21 -82 142 -410 163 -445 4 -5 7 -15 8 -22 1 -6
30 -69 65 -140 35 -70 62 -131 61 -135 -1 -3 5 -12 13 -18 8 -7 15 -16 15 -20
0 -12 83 -154 92 -158 4 -2 8 -10 8 -18 0 -8 5 -20 10 -27 6 -7 32 -46 57 -87
26 -41 65 -100 88 -132 22 -31 47 -66 55 -78 12 -18 97 -131 132 -175 126
-159 354 -399 492 -519 33 -28 67 -58 75 -66 9 -8 39 -33 66 -55 28 -22 52
-42 55 -45 9 -10 193 -145 245 -180 28 -19 52 -37 53 -42 2 -4 8 -8 13 -8 6 0
37 -18 70 -40 33 -22 65 -40 70 -40 5 0 9 -4 9 -10 0 -5 6 -10 14 -10 7 0 25
-9 40 -21 14 -11 26 -17 26 -13 0 4 8 0 18 -9 10 -9 61 -39 113 -65 52 -27
103 -54 114 -59 66 -34 109 -53 121 -53 8 0 14 -4 14 -9 0 -5 15 -13 33 -16
17 -4 34 -11 37 -14 3 -4 34 -18 70 -31 36 -12 75 -29 88 -37 12 -7 22 -11 22
-8 0 3 9 1 21 -5 11 -6 28 -13 37 -15 20 -5 130 -42 152 -52 8 -3 26 -8 40
-10 13 -2 27 -7 30 -11 3 -4 14 -8 25 -10 11 -1 25 -4 30 -6 6 -1 24 -6 40
-10 25 -6 39 -10 58 -16 8 -3 86 -22 107 -26 14 -3 43 -10 65 -16 22 -5 49
-11 60 -13 11 -2 36 -6 55 -9 48 -9 138 -24 180 -30 19 -3 51 -8 70 -10 234
-36 759 -41 1009 -11 14 2 55 6 91 10 36 3 72 8 80 10 8 2 35 7 60 10 25 4 68
11 95 17 28 5 64 12 80 14 17 3 48 10 70 16 37 9 49 12 100 23 50 11 65 15
135 35 171 48 429 140 590 212 89 39 342 168 370 188 15 11 33 20 39 20 6 0
11 5 11 10 0 6 6 10 14 10 8 0 47 22 88 48 40 27 88 57 106 67 17 11 32 23 32
27 0 4 6 8 14 8 7 0 25 11 39 24 15 14 36 27 47 31 11 3 20 11 20 16 0 5 8 13
17 16 17 7 31 17 88 66 18 15 35 27 39 27 3 0 14 8 24 18 10 9 38 33 63 54 24
20 62 51 84 69 59 50 363 355 420 423 28 33 55 64 61 70 6 6 56 72 112 146 56
74 105 140 110 145 4 6 25 37 46 70 22 33 53 80 69 105 29 43 48 76 89 150 11
19 29 51 40 70 20 35 131 250 133 260 1 3 7 18 13 33 7 16 12 33 12 38 0 5 3
9 8 9 4 0 18 30 31 68 13 37 27 72 31 77 4 6 12 24 18 40 5 17 28 80 50 142
22 62 37 114 34 117 -3 4 -1 6 5 6 5 0 10 6 10 13 0 13 40 162 50 187 3 8 5
19 4 24 -1 5 1 16 5 25 8 19 11 28 18 61 3 14 9 39 12 55 4 17 8 40 10 52 1
11 5 29 8 40 3 10 8 34 11 53 3 19 10 60 15 90 5 30 12 75 15 100 3 25 8 63
11 85 8 62 14 124 18 193 1 34 6 65 9 68 3 3 2 17 -3 30 -5 13 -6 24 -2 24 4
0 6 73 5 162 -3 228 -10 304 -45 488 -11 58 -21 114 -23 125 -6 30 -50 191
-71 260 -10 33 -19 62 -19 65 -1 3 -4 12 -7 20 -4 8 -9 24 -11 35 -9 34 -76
219 -86 235 -4 9 -12 30 -16 48 -3 18 -11 32 -17 32 -6 0 -9 3 -6 6 4 3 -4 29
-17 57 -20 45 -34 80 -40 97 -20 56 -236 495 -246 498 -5 2 -9 11 -9 21 0 9
-4 21 -9 27 -4 5 -28 45 -51 89 -24 44 -49 87 -56 96 -8 9 -11 19 -7 22 3 4 2
7 -4 7 -6 0 -13 8 -16 18 -8 22 -46 89 -74 129 -13 17 -23 34 -23 37 0 10
-153 251 -162 254 -4 2 -8 8 -8 14 0 6 -20 39 -45 75 -25 35 -45 66 -45 69 0
4 -81 119 -100 141 -5 7 -10 15 -10 18 0 5 -23 39 -63 90 -4 5 -35 48 -69 95
-75 103 -141 193 -148 200 -3 3 -25 32 -50 65 -24 33 -49 65 -55 71 -5 6 -21
26 -35 44 -14 18 -29 38 -35 44 -5 6 -23 29 -39 51 -17 22 -33 42 -36 45 -3 3
-51 59 -107 125 -111 132 -128 152 -179 208 -19 20 -33 37 -30 37 2 0 -19 24
-47 54 -29 29 -99 104 -157 166 -171 185 -413 423 -604 595 -49 44 -97 87
-105 95 -9 8 -57 49 -106 90 -50 41 -92 77 -95 80 -3 3 -21 17 -40 32 -19 14
-53 42 -75 62 -22 20 -43 36 -46 36 -3 0 -15 8 -27 18 -12 9 -33 26 -47 37
-14 11 -31 25 -38 30 -6 6 -28 22 -47 35 -19 13 -39 28 -45 33 -46 37 -177
127 -185 127 -6 0 -10 4 -10 8 0 5 -19 19 -42 32 -41 22 -97 59 -108 70 -10
10 -65 41 -82 47 -10 3 -18 9 -18 14 0 5 -7 9 -15 9 -8 0 -15 4 -15 8 0 4 -12
13 -27 20 -16 6 -41 20 -58 30 -51 31 -164 92 -264 142 -128 63 -182 87 -370
161 -20 8 -22 7 -16 -8z"/>
</g>
</svg>
